<?xml version="1.0" standalone="no"?>
<!DOCTYPE svg PUBLIC "-//W3C//DTD SVG 20010904//EN"
 "http://www.w3.org/TR/2001/REC-SVG-20010904/DTD/svg10.dtd">
<svg version="1.0" xmlns="http://www.w3.org/2000/svg"
 width="1200.000000pt" height="1200.000000pt" viewBox="0 0 1200.000000 1200.000000"
 preserveAspectRatio="xMidYMid meet">
<metadata>
Created by potrace 1.11, written by Peter Selinger 2001-2013
</metadata>
<g transform="translate(0.000000,1200.000000) scale(0.100000,-0.100000)"
fill="#000000" stroke="none">
<path d="M8178 9760 c-98 -25 -206 -78 -276 -135 -30 -25 -58 -42 -63 -39 -5
3 -8 2 -7 -3 5 -13 -109 -153 -117 -145 -5 4 -5 2 -2 -4 4 -6 -7 -40 -24 -75
-48 -98 -68 -193 -68 -312 1 -151 3 -176 13 -169 5 3 7 -4 4 -16 -3 -12 -2
-22 3 -24 5 -2 10 -12 12 -23 4 -28 52 -130 77 -166 12 -16 19 -29 17 -29 -3
0 17 -23 43 -52 27 -29 46 -57 43 -63 -4 -5 -3 -7 1 -3 9 8 112 -71 109 -82
-1 -4 5 -7 15 -6 9 0 16 -5 14 -12 -1 -8 2 -11 7 -8 5 3 37 -7 72 -23 35 -16
79 -32 97 -36 18 -3 30 -10 28 -13 -2 -4 10 -6 27 -6 18 1 36 -1 42 -4 5 -3
28 -5 52 -3 30 2 43 -1 43 -11 0 -9 3 -9 8 -2 4 6 41 14 83 17 87 6 142 20
217 53 29 13 57 24 61 24 5 0 11 3 13 8 2 4 23 20 47 36 96 62 178 155 239
267 100 185 109 451 22 637 -16 34 -26 62 -22 62 4 0 2 4 -4 8 -6 4 -26 30
-44 57 -33 48 -143 165 -155 165 -4 0 -21 11 -38 24 -44 33 -120 70 -197 96
-95 32 -286 37 -392 10z"/>
<path d="M6515 9320 c-3 -5 -1 -10 4 -10 6 0 11 5 11 10 0 6 -2 10 -4 10 -3 0
-8 -4 -11 -10z"/>
<path d="M6750 9319 c0 -5 5 -7 10 -4 6 3 10 8 10 11 0 2 -4 4 -10 4 -5 0 -10
-5 -10 -11z"/>
<path d="M5713 9245 c0 -8 4 -12 9 -9 5 3 6 10 3 15 -9 13 -12 11 -12 -6z"/>
<path d="M6490 9069 c-108 -4 -228 -12 -268 -18 -40 -6 -91 -14 -113 -16 -129
-16 -427 -93 -558 -143 -30 -12 -58 -19 -62 -17 -4 3 -9 1 -11 -4 -1 -5 -12
-11 -23 -13 -11 -1 -22 -6 -25 -9 -3 -3 -35 -18 -72 -34 -38 -16 -68 -33 -68
-38 0 -5 26 -55 57 -110 32 -56 56 -104 55 -106 -2 -2 1 -7 6 -10 19 -12 72
-112 66 -123 -4 -6 -3 -8 3 -5 5 4 16 -6 24 -21 7 -15 24 -44 36 -64 13 -21
20 -38 16 -38 -5 0 -3 -4 4 -8 11 -7 123 -195 123 -207 0 -3 -5 -3 -12 1 -7 4
-8 3 -4 -5 4 -6 11 -9 15 -7 4 3 15 -8 25 -25 9 -16 14 -29 9 -29 -4 0 -3 -4
3 -8 21 -14 65 -93 58 -104 -4 -6 -3 -8 3 -5 5 3 23 -18 39 -48 59 -108 109
-186 112 -175 3 8 8 7 18 -1 12 -9 13 -9 9 3 -4 10 10 19 52 33 32 10 65 19
73 20 9 0 21 4 28 9 6 4 16 5 21 2 5 -4 11 -2 13 3 3 9 32 17 98 26 14 2 33 6
43 10 11 5 17 2 17 -6 0 -11 2 -11 8 -1 5 7 26 15 48 18 72 10 414 16 414 7 0
-5 16 -7 36 -5 26 3 39 -1 50 -14 9 -11 13 -13 9 -6 -8 15 1 15 81 0 46 -8 65
-17 73 -32 9 -16 10 -17 6 -2 -4 15 -1 17 17 12 13 -4 30 -8 38 -10 58 -15 69
-19 65 -25 -2 -4 6 -7 18 -6 12 1 31 -3 42 -9 20 -10 26 -12 46 -15 5 0 8 -5
5 -10 -4 -5 2 -7 12 -4 11 2 26 -3 36 -12 9 -9 16 -13 16 -10 0 4 11 0 25 -9
14 -9 25 -14 25 -11 0 7 172 -85 187 -101 7 -7 9 -14 5 -17 -4 -2 -1 -2 7 0 7
2 28 -8 47 -22 18 -14 35 -25 38 -25 4 0 37 -26 76 -57 59 -48 67 -59 57 -72
-10 -14 -10 -14 4 -3 13 10 18 10 28 -1 6 -8 8 -17 4 -21 -4 -4 0 -4 10 0 10
3 18 1 18 -5 1 -6 2 -17 3 -23 1 -7 10 -12 20 -10 13 3 17 -1 13 -12 -4 -11
-1 -13 10 -9 13 5 15 2 10 -11 -4 -9 -3 -15 2 -12 12 7 53 -39 44 -49 -5 -4
-3 -6 2 -3 12 7 37 -17 28 -26 -4 -3 -1 -6 5 -6 11 0 102 -114 102 -129 0 -5
4 -11 9 -13 16 -6 62 -89 55 -100 -4 -6 -3 -8 3 -5 5 4 16 -5 23 -18 16 -29
22 -30 55 -9 14 9 25 12 25 8 0 -5 4 -4 8 2 12 18 255 135 270 129 7 -2 10 -1
7 5 -7 12 122 73 137 64 7 -4 8 -3 4 4 -6 10 110 72 135 72 5 0 9 4 9 10 0 5
12 13 28 16 15 4 32 10 37 14 31 24 85 48 85 39 0 -6 8 -1 18 11 10 12 30 23
45 23 15 1 27 5 27 9 0 4 56 36 125 70 69 34 125 67 125 72 0 25 -143 257
-238 386 -31 41 -54 75 -52 75 2 0 -7 11 -20 25 -14 14 -38 42 -55 61 -55 67
-115 129 -124 129 -4 0 -41 -14 -82 -30 -40 -17 -79 -28 -87 -25 -7 2 -10 0
-7 -5 6 -9 -4 -12 -52 -14 -10 -1 -20 -4 -23 -8 -11 -14 -149 -26 -260 -23
-115 3 -270 30 -270 47 0 5 -4 7 -9 3 -11 -6 -93 24 -102 38 -3 5 -8 7 -10 5
-10 -7 -88 36 -82 45 3 6 1 7 -5 3 -10 -6 -58 17 -72 35 -3 3 -15 11 -28 18
-12 7 -20 17 -16 23 4 6 3 8 -3 5 -19 -12 -154 114 -209 196 -16 23 -32 44
-36 47 -15 12 -89 160 -111 225 -30 85 -57 202 -57 248 0 52 -17 64 -110 81
-47 8 -98 17 -115 20 -16 4 -48 8 -70 11 -22 3 -56 7 -75 10 -19 2 -82 7 -140
11 -58 3 -107 7 -110 8 -3 1 -93 -1 -200 -5z"/>
<path d="M4915 8680 c-3 -5 -1 -10 4 -10 6 0 11 5 11 10 0 6 -2 10 -4 10 -3 0
-8 -4 -11 -10z"/>
<path d="M4760 8465 c-40 -30 -77 -52 -83 -48 -6 3 -7 1 -4 -4 8 -13 -57 -65
-68 -55 -5 4 -5 2 -2 -4 6 -11 -52 -61 -65 -56 -5 1 -7 -1 -5 -6 4 -14 -41
-54 -54 -47 -7 5 -10 4 -6 -2 3 -5 -26 -43 -66 -85 -90 -94 -130 -139 -185
-206 -24 -28 -49 -49 -54 -45 -7 3 -8 1 -4 -6 7 -10 -39 -80 -69 -106 -7 -5
-13 -14 -15 -20 -8 -27 -54 -84 -63 -78 -5 3 -7 1 -3 -5 6 -10 -51 -112 -64
-112 -4 0 -7 -6 -7 -12 -1 -23 -69 -138 -77 -131 -4 5 -6 3 -5 -2 5 -16 -11
-55 -22 -55 -6 0 -8 -4 -5 -8 3 -5 -5 -29 -18 -55 -18 -39 -25 -45 -36 -34
-12 10 -12 9 -2 -4 10 -14 8 -27 -12 -70 -27 -60 -87 -220 -107 -288 -11 -38
-11 -44 4 -53 10 -5 15 -13 12 -19 -3 -5 0 -7 7 -4 7 3 25 -5 39 -17 85 -74
117 -106 112 -112 -4 -3 0 -6 8 -6 8 0 23 -14 34 -30 11 -16 23 -30 28 -30 4
0 7 -6 7 -14 0 -8 4 -16 8 -18 27 -11 127 -192 116 -210 -4 -6 -3 -8 3 -5 6 4
16 -12 23 -36 7 -23 16 -51 21 -62 8 -20 23 -75 34 -130 14 -68 13 -281 -2
-360 -22 -115 -71 -261 -92 -275 -7 -4 -12 -10 -11 -14 4 -12 -22 -66 -31 -66
-5 0 -8 -6 -7 -12 2 -7 -3 -12 -10 -10 -8 1 -11 -2 -6 -9 4 -7 -1 -18 -11 -26
-11 -7 -15 -13 -11 -13 10 0 -68 -95 -118 -144 -23 -22 -69 -61 -103 -88 -52
-41 -62 -54 -60 -78 1 -15 5 -26 8 -25 3 2 11 -19 19 -48 7 -29 16 -59 20 -67
11 -21 24 -53 64 -150 40 -100 101 -223 145 -298 17 -29 28 -58 25 -64 -4 -6
-3 -8 3 -5 5 3 18 -8 28 -26 29 -49 106 -166 147 -222 20 -27 37 -53 38 -57 0
-4 15 -22 33 -40 57 -60 132 -152 130 -160 -2 -5 0 -7 5 -6 4 1 52 -43 107
-97 55 -55 126 -122 157 -149 32 -27 55 -53 51 -59 -3 -6 -1 -7 5 -3 12 7 129
-82 125 -95 -2 -5 3 -6 10 -3 7 2 22 -4 32 -16 24 -26 39 -25 53 3 6 12 24 45
40 72 16 28 42 73 57 100 43 76 77 129 87 136 5 3 9 8 7 10 -6 10 14 49 22 43
5 -3 8 -2 7 3 -4 14 13 53 23 53 5 0 8 3 7 8 -2 11 24 62 33 62 4 0 10 11 13
25 4 16 11 23 18 19 6 -4 8 -3 5 3 -9 14 97 195 108 186 4 -5 5 -3 2 3 -7 13
126 252 151 272 9 6 13 12 9 12 -4 0 0 14 8 31 l16 31 -58 51 c-94 84 -182
177 -248 262 -85 109 -148 212 -139 226 4 8 3 9 -5 5 -14 -9 -115 199 -105
216 4 7 3 8 -4 4 -7 -4 -12 -1 -12 8 0 8 8 20 18 25 9 6 12 11 7 11 -6 0 -16
-5 -22 -11 -11 -11 -15 -2 -38 81 -1 3 -7 24 -14 48 -6 23 -9 48 -5 54 4 6 3
8 -3 5 -7 -4 -14 8 -18 31 -16 82 -18 98 -19 122 -1 14 -5 28 -11 32 -12 8
-13 443 -2 503 12 61 13 66 21 127 5 32 12 56 16 53 5 -3 6 4 3 15 -3 11 -1
20 3 20 5 0 10 13 11 28 1 15 7 41 14 57 7 17 13 35 15 42 10 50 37 112 46
107 6 -4 8 -2 5 3 -9 14 12 75 23 68 5 -3 12 0 16 6 4 8 3 9 -4 5 -15 -9 -15
-3 -1 28 7 14 16 23 20 20 5 -3 6 2 3 10 -3 9 -1 16 5 16 6 0 10 3 9 8 -4 16
33 72 44 66 7 -4 8 -3 4 4 -9 15 24 73 37 65 6 -3 7 -1 3 5 -8 13 98 162 114
162 6 0 10 6 10 14 0 8 13 25 29 39 17 14 27 28 24 31 -4 3 2 6 12 6 10 0 16
3 13 6 -10 9 42 55 54 48 6 -4 8 -3 5 3 -8 13 27 46 37 36 4 -5 6 -1 4 7 -2 8
3 14 10 12 8 -1 11 2 7 7 -6 10 33 37 47 33 5 -1 7 4 5 11 -1 6 4 11 11 9 10
-2 10 2 2 18 -6 11 -8 20 -5 20 3 0 -4 10 -15 22 -11 12 -18 29 -15 37 3 9 3
12 -1 8 -10 -9 -85 123 -77 136 3 5 2 7 -4 4 -5 -3 -35 39 -66 93 -59 103 -65
116 -45 104 7 -4 8 -3 4 5 -4 6 -11 9 -16 6 -4 -3 -25 25 -46 62 -59 106 -67
121 -143 250 -39 67 -71 124 -71 128 0 3 -10 19 -21 34 -13 17 -18 34 -14 42
5 7 4 10 -3 5 -6 -4 -26 22 -49 64 -21 38 -41 70 -44 70 -3 0 -38 -25 -79 -55z"/>
<path d="M4510 8439 c0 -5 5 -7 10 -4 6 3 10 8 10 11 0 2 -4 4 -10 4 -5 0 -10
-5 -10 -11z"/>
<path d="M7980 8106 c0 -2 8 -10 18 -17 15 -13 16 -12 3 4 -13 16 -21 21 -21
13z"/>
<path d="M5270 8059 c0 -5 5 -7 10 -4 6 3 10 8 10 11 0 2 -4 4 -10 4 -5 0 -10
-5 -10 -11z"/>
<path d="M5666 7878 c3 -5 10 -6 15 -3 13 9 11 12 -6 12 -8 0 -12 -4 -9 -9z"/>
<path d="M6490 7779 c0 -5 5 -7 10 -4 6 3 10 8 10 11 0 2 -4 4 -10 4 -5 0 -10
-5 -10 -11z"/>
<path d="M6805 7780 c-3 -6 1 -7 9 -4 18 7 21 14 7 14 -6 0 -13 -4 -16 -10z"/>
<path d="M6575 7760 c3 -5 8 -10 11 -10 2 0 4 5 4 10 0 6 -5 10 -11 10 -5 0
-7 -4 -4 -10z"/>
<path d="M6660 7766 c0 -2 8 -10 18 -17 15 -13 16 -12 3 4 -13 16 -21 21 -21
13z"/>
<path d="M6170 7739 c0 -5 5 -7 10 -4 6 3 10 8 10 11 0 2 -4 4 -10 4 -5 0 -10
-5 -10 -11z"/>
<path d="M6416 7742 c-3 -4 4 -9 15 -9 23 -2 25 3 4 10 -8 4 -16 3 -19 -1z"/>
<path d="M6616 7738 c3 -5 10 -6 15 -3 13 9 11 12 -6 12 -8 0 -12 -4 -9 -9z"/>
<path d="M6816 7738 c3 -5 10 -6 15 -3 13 9 11 12 -6 12 -8 0 -12 -4 -9 -9z"/>
<path d="M6915 7740 c-3 -5 -1 -10 4 -10 6 0 11 5 11 10 0 6 -2 10 -4 10 -3 0
-8 -4 -11 -10z"/>
<path d="M6976 7742 c-3 -5 1 -9 9 -9 8 0 12 4 9 9 -3 4 -7 8 -9 8 -2 0 -6 -4
-9 -8z"/>
<path d="M6285 7720 c-3 -6 1 -7 9 -4 18 7 21 14 7 14 -6 0 -13 -4 -16 -10z"/>
<path d="M6495 7720 c3 -5 8 -10 11 -10 2 0 4 5 4 10 0 6 -5 10 -11 10 -5 0
-7 -4 -4 -10z"/>
<path d="M5855 7699 c-3 -4 2 -6 10 -5 21 3 28 13 10 13 -9 0 -18 -4 -20 -8z"/>
<path d="M6053 7689 c-2 -23 3 -25 10 -4 4 8 3 16 -1 19 -4 3 -9 -4 -9 -15z"/>
<path d="M6235 7699 c-3 -4 2 -6 10 -5 21 3 28 13 10 13 -9 0 -18 -4 -20 -8z"/>
<path d="M6690 7699 c0 -5 5 -7 10 -4 6 3 10 8 10 11 0 2 -4 4 -10 4 -5 0 -10
-5 -10 -11z"/>
<path d="M6760 7700 c-12 -7 -10 -9 7 -7 12 0 19 5 17 9 -6 10 -6 10 -24 -2z"/>
<path d="M6334 7675 c3 -23 12 -26 13 -5 1 11 -2 20 -7 20 -4 0 -7 -7 -6 -15z"/>
<path d="M6537 7676 c-4 -9 -11 -16 -17 -16 -6 0 -8 6 -5 13 4 6 1 5 -7 -3 -7
-8 -22 -17 -33 -18 -11 -2 -23 -9 -27 -15 -6 -9 -11 -8 -18 3 -8 13 -10 12
-10 -2 0 -10 -5 -18 -11 -18 -5 0 -7 -6 -3 -12 6 -10 5 -10 -8 0 -12 10 -18
10 -28 -2 -6 -9 -9 -20 -5 -26 4 -6 3 -10 -2 -9 -4 1 -15 1 -23 0 -13 -1 -13
-2 0 -11 15 -10 10 -11 -72 -13 -18 -1 -24 -5 -19 -12 9 -9 -12 -39 -21 -30
-2 2 -3 -27 -1 -64 3 -67 3 -69 -19 -65 -20 4 -20 3 -4 -4 11 -5 21 -21 23
-38 3 -23 1 -26 -7 -14 -9 11 -10 7 -5 -19 5 -23 4 -31 -4 -27 -10 7 -6 -14 8
-39 10 -19 9 -65 -1 -65 -6 0 -8 -3 -5 -6 4 -4 14 -1 22 6 13 11 16 11 13 0
-3 -13 38 -40 66 -44 21 -3 36 -17 30 -28 -5 -7 -1 -9 9 -5 10 3 17 2 17 -3 0
-14 -19 -22 -32 -13 -20 12 -38 12 -38 1 0 -6 6 -8 14 -5 8 3 17 3 21 -1 4 -4
17 -7 30 -7 16 -1 21 4 18 15 -3 9 0 8 7 -4 9 -13 15 -15 20 -7 4 7 6 -3 6
-21 -1 -18 -6 -39 -10 -47 -6 -9 -5 -12 2 -7 6 3 16 -3 22 -15 7 -12 8 -19 2
-15 -6 3 -12 3 -15 -1 -2 -5 -2 -2 0 5 1 7 -2 10 -7 7 -16 -10 -25 26 -9 37
11 7 11 11 1 15 -6 2 -10 8 -8 12 3 4 -7 8 -22 8 -15 0 -36 4 -47 8 -16 5 -17
5 -5 -4 8 -5 11 -14 6 -18 -4 -4 -16 3 -27 16 -11 13 -22 21 -26 18 -3 -4 4
-15 17 -25 22 -18 22 -19 4 -26 -10 -4 -15 -4 -12 0 12 11 -20 34 -39 28 -11
-4 -14 -3 -7 3 6 4 16 18 23 31 10 18 9 23 -4 28 -9 4 -21 2 -27 -4 -8 -8 -5
-9 11 -5 16 4 20 2 16 -9 -3 -8 -12 -15 -20 -15 -19 0 -28 27 -14 43 8 10 8
14 0 14 -6 0 -11 -4 -11 -10 0 -5 -9 -10 -21 -10 -14 0 -19 5 -16 14 4 10 1
13 -8 9 -8 -3 -12 -10 -8 -17 3 -6 1 -6 -8 2 -7 6 -17 12 -22 12 -4 0 -5 -6
-1 -12 5 -8 1 -7 -10 2 -23 18 -46 22 -40 5 4 -9 -4 -12 -25 -10 -17 1 -43 -4
-58 -12 -15 -8 -41 -15 -56 -15 -15 -1 -30 -5 -33 -9 -3 -5 1 -6 9 -3 8 3 18
0 23 -7 4 -8 3 -10 -4 -5 -11 7 -38 -38 -34 -56 5 -24 8 -128 4 -123 -3 2 -11
-4 -19 -15 -11 -16 -18 -17 -39 -10 -17 7 -23 7 -19 0 3 -6 13 -10 21 -10 13
0 12 -5 -3 -31 -10 -17 -27 -35 -38 -39 -11 -5 -14 -9 -7 -9 10 -1 10 -5 -2
-17 -9 -8 -14 -19 -12 -23 3 -4 -15 -6 -40 -6 -25 1 -47 -2 -49 -5 -3 -4 8 -6
24 -5 16 1 35 -1 43 -6 10 -7 10 -9 0 -9 -8 0 -10 -5 -6 -12 6 -10 5 -10 -7
-1 -12 10 -15 8 -16 -10 -1 -12 -8 -26 -15 -32 -8 -5 -13 -20 -12 -33 1 -17
-2 -20 -11 -12 -8 7 -15 7 -19 1 -3 -5 -1 -11 5 -13 8 -3 7 -12 -5 -30 -10
-15 -17 -29 -17 -32 3 -20 -1 -26 -16 -27 -10 0 -13 -3 -6 -6 9 -3 10 -9 1
-23 -9 -14 -9 -22 3 -36 12 -15 12 -17 0 -9 -11 6 -13 4 -8 -8 7 -18 -15 -40
-29 -29 -5 4 -2 0 7 -9 10 -9 15 -28 14 -48 -2 -23 0 -29 6 -20 8 13 13 5 10
-15 -1 -5 5 -6 14 -2 13 5 14 2 4 -15 -6 -11 -8 -23 -5 -27 3 -3 6 0 6 6 0 12
34 11 46 -1 4 -3 -2 -5 -13 -3 -13 3 -19 -2 -19 -15 0 -12 4 -15 10 -9 15 15
26 12 20 -5 -4 -10 0 -15 11 -15 13 0 16 -6 12 -26 -3 -20 1 -28 19 -36 26
-12 30 -23 14 -33 -7 -4 -7 -11 -2 -18 5 -7 8 -20 7 -29 -2 -10 1 -21 7 -24 5
-4 3 -13 -6 -23 -14 -16 -14 -19 3 -38 15 -16 17 -23 8 -33 -7 -7 -7 -10 -2
-7 6 3 17 2 25 -4 12 -7 9 -9 -10 -10 -14 -1 -18 -3 -9 -6 11 -3 14 -12 11
-35 -4 -24 -2 -29 9 -23 8 5 5 -2 -6 -15 -11 -13 -15 -20 -8 -17 6 4 20 -8 32
-29 12 -19 15 -32 9 -28 -9 5 -9 2 1 -9 7 -9 20 -17 27 -17 8 0 13 -5 12 -12
-2 -7 3 -12 10 -13 6 0 11 -4 10 -10 -2 -5 -7 -9 -11 -7 -5 1 -5 -3 -2 -9 5
-8 10 -8 18 0 14 14 30 14 21 0 -4 -8 -1 -8 12 -1 11 5 28 6 39 2 11 -4 28 -3
39 2 13 7 16 7 12 -1 -5 -7 -1 -9 8 -5 9 3 16 10 16 15 0 4 7 6 15 3 8 -4 12
-11 8 -18 -4 -6 -6 -20 -4 -31 3 -17 1 -18 -15 -5 -13 11 -11 5 6 -19 13 -19
17 -31 9 -26 -12 8 -12 6 0 -8 9 -11 10 -17 2 -17 -6 0 -11 -7 -11 -16 0 -8 5
-12 10 -9 6 3 10 1 10 -4 0 -6 -5 -11 -10 -11 -6 0 -9 -24 -8 -58 1 -31 -1
-62 -5 -69 -4 -6 -2 -13 4 -15 8 -3 6 -10 -5 -21 -11 -10 -13 -17 -5 -17 9 0
9 -3 -1 -15 -6 -8 -9 -18 -6 -24 3 -5 1 -11 -6 -13 -6 -2 -12 -21 -13 -42 -1
-21 -8 -42 -16 -47 -11 -7 -11 -9 -1 -9 7 0 12 -6 11 -12 -3 -16 26 -80 32
-74 3 3 11 -4 18 -16 7 -11 8 -17 2 -13 -6 3 -11 2 -11 -4 0 -5 10 -13 21 -16
17 -6 19 -9 8 -16 -11 -7 -11 -11 -1 -17 10 -7 8 -12 -6 -25 -21 -20 -27 -78
-9 -89 8 -5 7 -8 -4 -8 -8 0 -23 -15 -33 -32 -9 -18 -15 -25 -12 -16 3 11 0
15 -8 12 -8 -3 -13 -18 -12 -35 1 -16 -2 -29 -7 -29 -4 0 -5 -5 -2 -10 4 -6
11 -7 17 -4 6 4 8 2 5 -4 -12 -19 5 -42 30 -42 19 0 24 -4 19 -16 -5 -12 -2
-15 10 -10 15 6 15 4 0 -18 -9 -14 -13 -33 -9 -42 4 -11 2 -15 -4 -11 -13 8
-36 -17 -25 -27 4 -4 0 -6 -8 -4 -10 2 -14 -3 -12 -14 2 -10 -2 -18 -7 -18 -6
0 -9 -10 -7 -22 2 -13 -1 -28 -6 -35 -5 -7 -11 -22 -13 -35 -7 -42 -11 -57
-17 -64 -4 -3 -5 -11 -3 -17 2 -7 6 -25 10 -40 5 -25 8 -27 23 -16 14 11 14
10 -1 -8 -18 -21 -18 -21 5 -29 13 -4 26 -7 31 -6 4 1 7 -3 7 -9 0 -6 7 -9 15
-5 8 3 15 1 15 -5 0 -6 7 -9 15 -5 8 3 15 2 15 -2 0 -5 12 -9 28 -9 15 -1 55
-3 90 -6 34 -2 65 0 68 5 3 4 10 6 15 3 5 -4 9 0 9 7 0 11 2 11 9 0 6 -11 11
-10 25 3 9 9 16 11 16 5 0 -7 5 -6 14 2 8 7 12 16 10 20 -2 4 1 10 7 14 8 4 9
3 5 -4 -4 -7 -1 -12 8 -12 10 0 13 6 10 15 -7 18 7 20 25 3 11 -11 12 -10 5 2
-13 22 -14 40 -2 40 6 0 5 6 -2 15 -11 13 -10 14 4 9 12 -5 15 -2 9 12 -5 13
-3 15 8 9 9 -6 8 0 -5 19 -10 16 -13 25 -7 22 6 -4 11 0 11 8 0 9 -5 16 -11
16 -6 0 -4 7 5 15 16 17 11 49 -7 38 -6 -3 -7 -1 -3 6 4 6 11 9 16 6 5 -3 11
-1 15 5 3 5 1 10 -5 10 -6 0 -9 4 -6 9 3 5 -1 11 -9 15 -8 3 -15 12 -15 21 0
8 -5 15 -11 15 -5 0 -7 -6 -3 -12 4 -7 -2 -4 -14 6 -24 21 -31 36 -8 17 12
-10 18 -7 33 16 10 15 23 34 30 41 17 17 17 35 1 27 -7 -4 -5 0 5 8 14 11 15
16 5 20 -8 3 -9 6 -1 6 6 1 9 10 5 23 -3 14 -1 19 6 14 8 -5 10 -2 6 8 -3 9
-10 13 -15 10 -5 -3 -9 0 -9 5 0 6 5 11 10 11 6 0 10 4 10 10 0 5 -8 6 -17 3
-15 -6 -16 -5 -3 9 12 12 18 13 30 5 12 -9 12 -7 -1 8 -22 28 -31 55 -17 52
15 -3 17 24 4 42 -9 12 -7 13 7 8 14 -5 16 -3 9 11 -9 17 -6 155 3 180 2 6 -3
12 -13 12 -11 0 -13 3 -5 8 6 4 13 21 15 37 2 22 8 30 21 29 14 -2 15 1 6 12
-9 11 -9 14 1 14 9 0 9 4 -1 17 -9 11 -10 14 -2 9 15 -9 15 42 0 62 -6 8 -5
12 4 12 11 0 11 2 -1 10 -13 9 -13 10 0 10 9 0 11 3 5 8 -5 4 -10 16 -9 27 0
11 -4 25 -8 32 -5 6 -5 14 1 17 6 4 7 14 4 23 -4 10 -2 14 4 10 5 -3 10 0 10
8 0 8 -4 12 -8 10 -4 -3 -9 2 -13 10 -3 8 0 15 6 15 7 0 7 4 1 13 -16 19 -23
61 -13 77 5 9 5 19 -1 26 -8 9 -4 11 13 8 22 -5 22 -5 -2 10 -14 8 -19 15 -13
16 9 0 12 13 10 41 -3 32 1 43 17 55 11 8 15 14 9 14 -7 0 -15 -4 -18 -10 -3
-5 -11 -10 -17 -10 -6 0 -5 6 3 16 9 11 10 17 2 22 -18 11 -10 46 12 60 18 11
17 12 -9 6 -21 -5 -27 -4 -22 5 4 6 12 9 17 6 5 -4 9 1 9 9 0 9 5 16 10 16 6
0 9 -6 8 -12 -2 -7 3 -12 10 -10 10 2 10 -2 2 -18 -8 -15 -8 -20 2 -20 9 0 9
-3 -2 -10 -10 -6 -11 -10 -2 -10 6 0 12 -4 12 -10 0 -5 -7 -7 -16 -3 -8 3 -13
12 -10 19 3 8 1 14 -4 14 -21 0 -8 -30 20 -47 17 -9 30 -21 30 -26 0 -4 -4 -5
-10 -2 -5 3 -10 1 -10 -5 0 -6 -5 -8 -12 -4 -7 4 -8 3 -4 -4 5 -9 13 -9 26 -2
28 15 40 12 33 -7 -5 -12 -3 -14 7 -8 9 5 11 4 6 -3 -4 -7 -13 -12 -20 -12 -8
0 -20 -8 -27 -17 -11 -15 -11 -16 1 -5 22 19 33 14 28 -13 -3 -14 -2 -25 2
-25 4 0 11 -7 14 -16 6 -15 4 -15 -11 -3 -14 11 -15 12 -9 0 5 -8 3 -17 -5
-23 -10 -7 -7 -7 9 -3 13 4 22 2 22 -4 0 -6 -6 -11 -12 -11 -9 0 -8 -4 2 -10
12 -8 12 -10 -5 -10 -19 -1 -19 -2 1 -10 12 -5 24 -13 27 -17 9 -14 -8 -34
-31 -36 -11 0 -19 -4 -16 -8 2 -4 13 -5 24 -2 12 3 20 0 20 -6 0 -7 -5 -9 -12
-5 -9 5 -9 2 1 -9 7 -9 10 -17 5 -17 -5 0 2 -9 16 -20 24 -19 24 -19 3 -13
-14 3 -23 1 -23 -6 0 -6 5 -10 12 -9 17 4 18 -73 1 -79 -8 -3 -12 -12 -9 -19
3 -7 1 -16 -5 -20 -6 -4 -3 -14 8 -27 13 -16 14 -18 2 -9 -14 10 -18 10 -23
-3 -3 -9 -11 -13 -17 -9 -8 4 -9 3 -5 -4 4 -6 12 -9 19 -6 8 3 14 -6 15 -25 1
-16 9 -42 17 -57 7 -15 12 -31 9 -36 -3 -4 1 -8 8 -8 9 0 9 -3 -2 -10 -12 -8
-10 -10 10 -11 14 0 19 -3 12 -6 -6 -2 -10 -9 -7 -14 4 -5 -1 -6 -9 -3 -9 3
-16 2 -16 -4 0 -6 6 -13 13 -15 7 -3 5 -6 -5 -6 -16 -1 -22 -11 -15 -27 1 -3
-6 -10 -15 -15 -10 -5 -23 -19 -29 -31 -6 -11 -7 -18 -2 -15 5 4 10 0 10 -7 0
-8 -6 -12 -13 -9 -9 3 -12 -3 -8 -24 5 -27 4 -27 -10 -8 -12 16 -14 17 -12 4
1 -10 8 -24 14 -32 11 -13 10 -17 -3 -25 -16 -8 -16 -10 0 -25 12 -12 13 -17
3 -17 -10 0 -9 -3 2 -10 8 -5 15 -15 15 -22 1 -7 7 -12 13 -10 7 1 12 -3 10
-10 -1 -7 3 -23 10 -35 7 -13 9 -23 5 -23 -4 0 -1 -5 7 -10 13 -8 13 -10 -2
-10 -10 0 -25 -14 -34 -31 -11 -23 -12 -29 -2 -23 10 6 11 5 2 -7 -6 -8 -12
-23 -12 -34 0 -24 18 -75 27 -73 21 2 31 -3 25 -14 -4 -7 -4 -10 1 -6 4 4 15
2 23 -5 11 -8 14 -8 9 0 -4 6 -3 14 3 18 5 3 10 -2 10 -11 0 -10 3 -15 6 -11
9 9 33 -16 26 -28 -3 -5 3 -3 13 5 10 8 16 10 12 4 -3 -6 7 -18 24 -28 16 -9
27 -21 24 -27 -4 -5 2 -6 11 -2 12 5 15 3 9 -6 -5 -10 -2 -11 14 -6 13 4 21 2
21 -5 0 -6 4 -9 9 -6 5 3 14 -1 21 -9 7 -8 27 -17 46 -21 20 -4 31 -11 27 -17
-3 -6 -1 -7 5 -3 6 4 21 2 33 -5 19 -10 21 -9 15 7 -6 16 -5 17 11 3 18 -16
95 -18 149 -5 18 5 24 3 19 -5 -4 -6 4 -3 19 6 25 17 38 34 14 19 -6 -4 -8 -3
-5 4 4 5 15 9 24 8 20 -3 43 15 36 27 -3 5 3 15 13 22 11 8 15 15 10 15 -5 0
-2 8 5 17 12 14 12 16 0 8 -11 -6 -13 -2 -7 19 4 16 3 25 -2 22 -5 -3 -9 2 -9
12 1 9 -9 33 -22 52 -16 26 -21 29 -16 11 5 -16 4 -21 -4 -17 -6 4 -11 13 -11
20 0 16 -37 36 -75 40 -17 1 -29 7 -27 15 1 8 -3 9 -15 3 -10 -4 -25 -8 -33
-7 -8 1 -19 -2 -25 -6 -6 -5 -10 19 -10 67 0 59 3 74 15 75 10 0 8 3 -5 9 -11
5 -15 9 -8 9 7 1 10 8 7 16 -4 9 0 15 7 15 9 0 10 3 4 8 -15 11 -17 32 -3 32
9 0 8 4 -2 10 -8 5 -10 10 -4 10 8 0 8 11 0 41 -8 33 -8 42 4 50 13 9 12 10
-2 6 -9 -3 -22 1 -29 9 -10 12 -9 13 6 8 15 -6 16 -4 6 15 -7 12 -17 18 -23
15 -7 -4 -8 -3 -4 4 4 6 14 8 24 5 15 -6 15 -5 3 10 -12 15 -12 17 4 11 13 -5
16 -4 11 4 -4 7 -3 12 2 12 6 0 13 12 16 26 5 19 11 24 24 19 13 -5 14 -4 5 6
-9 9 -8 18 8 41 18 24 19 31 7 45 -8 10 -8 14 -1 10 13 -8 22 3 28 33 2 11 0
18 -6 15 -5 -4 -9 -2 -9 4 0 5 5 13 10 16 6 4 8 10 6 14 -3 4 -8 22 -11 40 -3
18 -12 40 -20 48 -18 17 -20 27 -3 17 8 -5 9 -2 5 10 -4 10 -7 20 -7 22 0 3
-6 2 -12 -2 -9 -5 -9 -2 1 9 7 9 9 17 4 17 -10 0 -13 16 -13 58 0 13 -4 21 -9
18 -11 -7 -8 21 4 31 4 4 5 2 0 -6 -6 -10 -4 -12 5 -6 10 6 7 12 -10 25 -15
11 -19 20 -11 24 7 5 6 14 -5 32 -16 23 -15 26 2 45 10 11 14 20 9 19 -22 -5
-27 1 -14 17 10 11 10 14 2 9 -19 -11 -16 3 5 22 9 10 13 14 8 10 -15 -12 -23
-10 -23 7 0 8 5 11 11 8 6 -4 5 0 -1 9 -7 8 -10 18 -6 22 4 4 1 12 -7 17 -12
9 -12 10 3 5 9 -3 17 -3 17 1 0 3 -8 12 -17 20 -10 8 -12 12 -5 8 6 -3 12 0
12 7 0 7 7 2 16 -10 8 -12 20 -19 26 -16 7 4 8 2 4 -5 -4 -6 -13 -8 -19 -5 -7
4 1 -5 16 -20 16 -14 39 -27 53 -28 13 -1 24 -5 24 -9 0 -3 7 -6 15 -6 10 0
14 6 10 16 -3 8 -3 12 1 8 4 -4 13 -2 21 4 7 6 13 8 13 4 0 -5 9 2 20 15 11
13 20 19 20 14 0 -5 7 2 16 14 15 22 41 32 28 10 -4 -7 -3 -8 5 -4 9 6 8 14
-5 34 l-17 27 28 -25 c16 -14 24 -18 20 -11 -13 23 -12 59 1 54 14 -5 13 14 0
36 -6 9 -5 12 2 7 6 -3 13 -2 17 4 3 5 -2 10 -12 11 -15 0 -14 2 3 9 12 5 26
15 30 22 6 10 4 10 -9 -1 -23 -19 -21 -5 5 32 12 17 17 27 10 23 -7 -4 -12 -2
-12 3 0 16 21 13 40 -4 14 -13 17 -13 17 0 0 8 -4 12 -8 10 -10 -7 -25 17 -27
42 0 13 4 26 10 29 6 4 5 10 -3 15 -11 7 -10 9 3 9 12 0 15 5 11 17 -5 12 -3
14 8 8 12 -7 12 -6 1 7 -11 14 -11 16 0 14 7 -1 20 -6 28 -11 9 -5 8 0 -4 13
-15 17 -16 22 -5 22 18 0 50 36 41 46 -4 5 1 2 11 -5 15 -12 17 -12 10 4 -5
14 -3 17 9 13 8 -4 15 -1 15 8 0 7 -5 10 -10 7 -6 -4 -7 -1 -3 6 5 7 14 10 20
8 7 -3 19 -1 27 5 11 8 11 9 -3 4 -10 -3 -20 -1 -23 5 -4 5 -3 9 2 8 4 -1 15
-1 23 0 13 1 13 2 0 11 -13 8 -13 11 -1 22 11 11 13 11 6 -1 -6 -10 -4 -12 4
-7 9 6 9 11 0 23 -7 8 -13 28 -14 44 -1 23 1 26 12 17 12 -10 12 -7 2 15 -7
15 -16 27 -20 27 -4 0 -5 10 -2 23 4 18 3 19 -6 7 -9 -12 -11 -11 -11 8 0 13
-4 21 -9 18 -5 -4 -8 2 -6 11 1 10 0 23 -4 28 -3 6 -7 28 -8 49 -1 21 -5 42
-9 45 -4 3 -4 -6 -2 -21 3 -16 1 -28 -3 -28 -5 0 -9 7 -9 16 0 8 -4 12 -10 9
-6 -4 -7 1 -3 12 3 10 3 15 -2 11 -4 -4 -19 5 -31 20 -24 26 -32 48 -16 38 5
-3 9 2 9 11 0 13 -4 12 -17 -5 l-17 -21 -13 25 c-8 13 -17 24 -22 24 -4 0 -8
5 -8 11 0 5 4 8 9 5 11 -7 8 20 -3 31 -4 4 -6 2 -4 -6 6 -27 -20 -22 -30 6 -7
17 -11 21 -11 11 -1 -20 -17 -25 -18 -5 0 6 -4 20 -8 30 -5 11 -3 17 6 17 11
0 11 2 -1 10 -14 9 -20 31 -21 73 0 9 -4 15 -8 13 -4 -3 -13 4 -20 16 -7 11
-8 17 -2 13 18 -10 13 3 -9 25 -11 11 -24 20 -30 20 -5 0 -10 5 -10 11 0 5 5
7 10 4 6 -3 10 -1 10 4 0 15 -13 14 -29 -1 -11 -11 -13 -9 -8 10 4 17 2 21 -7
13 -23 -20 -71 1 -61 27 5 13 2 12 -15 -3 -24 -21 -25 -26 -6 -19 8 3 17 1 20
-4 3 -6 -12 -12 -34 -14 -31 -3 -40 0 -41 12 0 9 -4 5 -10 -8 -5 -13 -14 -20
-20 -16 -8 4 -7 9 2 15 7 4 10 12 5 16 -5 4 -11 3 -13 -3 -2 -6 -11 -20 -19
-30 -9 -10 -13 -13 -9 -6 3 6 2 12 -3 12 -6 0 -13 -7 -16 -16 -4 -10 -13 -13
-28 -9 -13 3 -18 3 -13 -2 15 -12 18 -36 4 -27 -9 5 -10 2 -6 -9 3 -10 2 -17
-4 -17 -6 0 -7 -5 -3 -12 4 -6 3 -8 -3 -5 -6 4 -18 -2 -28 -13 -22 -24 -31
-25 -39 -4 -4 10 -2 13 7 8 6 -4 2 3 -10 15 -24 23 -42 29 -24 8 6 -8 8 -17 4
-20 -9 -9 -23 -9 -22 1 4 26 -2 33 -17 17 -14 -13 -14 -19 -4 -28 10 -9 11 -9
5 2 -5 10 -4 12 4 7 6 -4 9 -12 6 -17 -4 -5 -2 -9 4 -9 5 0 13 5 16 10 3 6 11
10 17 10 6 0 8 -3 5 -7 -4 -3 -1 -13 5 -22 10 -13 10 -14 -2 -4 -9 8 -19 9
-32 2 -13 -7 -18 -6 -18 3 0 9 -3 9 -10 -2 -9 -13 -10 -13 -10 0 0 13 -1 13
-10 0 -7 -11 -10 -11 -10 -2 0 7 -5 10 -10 7 -6 -4 -10 -3 -9 2 4 21 -2 34
-13 27 -7 -4 -8 -3 -4 4 11 18 39 15 33 -3 -4 -8 -1 -17 5 -21 7 -5 8 -2 3 6
-6 9 -4 11 6 4 10 -6 9 -1 -3 18 -16 25 -16 25 5 24 12 0 21 4 20 11 -2 8 4
10 14 6 11 -5 14 -3 8 6 -6 10 -3 11 12 3 13 -7 24 -7 34 0 11 8 10 9 -4 4
-11 -3 -16 -2 -12 4 3 6 15 10 26 10 12 0 17 4 13 11 -4 8 0 9 15 4 12 -4 21
-2 21 4 0 6 7 7 17 4 12 -5 14 -3 8 7 -5 8 -4 11 3 6 6 -3 13 -2 17 3 3 6 12
8 20 4 11 -4 13 -1 8 13 -4 11 -3 15 5 10 6 -3 13 -2 17 4 3 5 0 10 -7 10 -10
0 -9 3 2 9 8 6 18 7 24 4 5 -3 6 -1 2 5 -4 6 -12 9 -20 6 -7 -3 -13 1 -13 9 0
9 9 12 26 10 25 -4 25 -3 -4 11 -16 8 -25 15 -19 15 6 1 10 24 10 59 -1 31 2
65 6 74 7 14 5 16 -9 11 -16 -6 -16 -5 -4 10 7 9 10 17 5 17 -5 0 -2 5 6 10
10 6 11 10 3 10 -7 0 -16 18 -19 40 -4 23 -9 38 -12 35 -8 -8 -33 16 -26 26 3
5 -1 6 -9 3 -22 -8 -70 14 -64 30 4 10 -2 13 -23 12 -16 -1 -28 0 -28 3 3 29
-4 39 -22 36 -11 -2 -18 0 -15 6 4 5 1 9 -5 9 -6 0 -8 5 -4 12 4 7 3 8 -4 4
-7 -4 -12 -3 -12 2 0 5 -6 9 -12 10 -64 9 -87 16 -82 24 4 6 -3 5 -15 -1 -16
-9 -21 -9 -21 1 0 10 -3 9 -9 -1 -8 -12 -12 -12 -24 -2 -11 9 -17 9 -22 0 -6
-8 -9 -8 -15 1 -5 8 -9 7 -13 -4z m-20 -37 c-9 -6 -14 -15 -11 -21 4 -7 2 -8
-5 -4 -14 9 3 36 23 36 6 0 3 -5 -7 -11z m193 5 c0 -8 -19 -13 -24 -6 -3 5 1
9 9 9 8 0 15 -2 15 -3z m35 -13 c3 -5 2 -12 -3 -15 -5 -3 -9 1 -9 9 0 17 3 19
12 6z m-111 -9 c3 -5 -1 -9 -9 -9 -8 0 -12 4 -9 9 3 4 7 8 9 8 2 0 6 -4 9 -8z
m-204 -42 c0 -5 -2 -10 -4 -10 -3 0 -8 5 -11 10 -3 6 -1 10 4 10 6 0 11 -4 11
-10z m260 5 c0 -7 -30 -13 -34 -7 -3 4 4 9 15 9 10 1 19 0 19 -2z m96 -21 c1
-9 0 -13 -4 -10 -3 4 -7 14 -8 22 -1 9 0 13 4 10 3 -4 7 -14 8 -22z m-281 -23
c-9 -8 -36 -10 -30 -2 2 4 11 8 20 8 8 0 13 -3 10 -6z m60 0 c-9 -8 -36 -10
-30 -2 2 4 11 8 20 8 8 0 13 -3 10 -6z m59 1 c3 -5 -1 -9 -9 -9 -8 0 -12 4 -9
9 3 4 7 8 9 8 2 0 6 -4 9 -8z m121 -1 c-9 -8 -36 -10 -30 -2 2 4 11 8 20 8 8
0 13 -3 10 -6z m109 1 c3 -5 -1 -9 -9 -9 -8 0 -12 4 -9 9 3 4 7 8 9 8 2 0 6
-4 9 -8z m-524 -47 c0 -2 -9 -3 -19 -2 -11 0 -18 5 -15 9 4 6 34 0 34 -7z
m294 7 c2 -4 -5 -9 -17 -9 -17 -2 -19 0 -7 7 18 12 18 12 24 2z m181 -2 c3 -5
1 -10 -4 -10 -6 0 -11 5 -11 10 0 6 2 10 4 10 3 0 8 -4 11 -10z m-538 -29 c0
-11 -5 -18 -9 -15 -4 3 -5 11 -1 19 7 21 12 19 10 -4z m480 0 c0 -11 -5 -18
-9 -15 -4 3 -5 11 -1 19 7 21 12 19 10 -4z m-162 -10 c3 -5 2 -12 -3 -15 -5
-3 -9 1 -9 9 0 17 3 19 12 6z m-275 -55 c0 -3 -4 -8 -10 -11 -5 -3 -10 -1 -10
4 0 6 5 11 10 11 6 0 10 -2 10 -4z m175 -5 c3 -5 2 -12 -3 -15 -5 -3 -9 1 -9
9 0 17 3 19 12 6z m436 -74 c-10 -9 -11 -8 -5 6 3 10 9 15 12 12 3 -3 0 -11
-7 -18z m-151 -3 c0 -8 -19 -13 -24 -6 -3 5 1 9 9 9 8 0 15 -2 15 -3z m80 -4
c0 -5 -2 -10 -4 -10 -3 0 -8 5 -11 10 -3 6 -1 10 4 10 6 0 11 -4 11 -10z
m-242 -45 c-3 -3 -9 2 -12 12 -6 14 -5 15 5 6 7 -7 10 -15 7 -18z m42 -99 c0
-2 -8 -10 -17 -17 -16 -13 -17 -12 -4 4 13 16 21 21 21 13z m400 -90 c0 -3 -4
-8 -10 -11 -5 -3 -10 -1 -10 4 0 6 5 11 10 11 6 0 10 -2 10 -4z m-575 -39 c14
0 17 -37 3 -37 -5 0 -8 -6 -5 -13 6 -16 -30 -20 -40 -4 -9 14 -12 49 -6 60 3
5 12 5 22 1 9 -3 21 -7 26 -7z m-91 -27 c-1 -8 -5 -23 -9 -33 -5 -12 -3 -17 5
-15 7 2 14 -3 16 -10 1 -7 0 -8 -3 -2 -3 8 -9 8 -18 0 -18 -15 -31 6 -15 25 7
8 9 15 5 15 -4 0 -1 8 6 18 13 15 12 16 -3 4 -13 -10 -17 -10 -20 0 -3 8 -7 6
-11 -6 -4 -9 -3 -15 2 -11 5 3 12 1 16 -5 8 -13 -15 -13 -35 0 -13 8 -12 11 4
23 25 18 61 16 60 -3z m-380 -18 c3 -5 -1 -9 -9 -9 -8 0 -12 4 -9 9 3 4 7 8 9
8 2 0 6 -4 9 -8z m466 -36 c0 -3 -4 -8 -10 -11 -5 -3 -10 -1 -10 4 0 6 5 11
10 11 6 0 10 -2 10 -4z m-331 -179 c8 -10 7 -17 -2 -27 -10 -10 -9 -12 6 -7
10 4 16 3 12 -2 -3 -5 -2 -11 2 -14 5 -2 3 -3 -3 -1 -6 1 -16 -2 -22 -8 -6 -6
-12 -6 -16 1 -4 6 -3 11 2 11 5 0 9 7 9 15 0 22 -14 18 -20 -5 -3 -11 1 -26 8
-33 11 -11 10 -16 -5 -25 -16 -10 -19 -8 -18 11 1 50 10 77 26 77 15 0 15 2 2
10 -8 5 -10 10 -4 10 6 0 16 -6 23 -13z m930 -14 c-4 -25 2 -43 13 -37 6 4 8
3 4 -4 -3 -6 2 -16 11 -22 16 -10 16 -11 1 -6 -10 3 -20 1 -23 -4 -4 -6 -11
-10 -18 -10 -8 0 -8 3 1 12 15 15 16 28 2 28 -5 0 -9 -3 -9 -7 1 -5 0 -10 -1
-13 -7 -19 -7 -39 1 -35 5 4 6 -1 3 -9 -8 -21 -17 -20 -38 3 -15 17 -15 20 -2
34 8 8 12 18 8 22 -4 4 0 5 8 3 9 -2 14 5 14 17 0 11 5 23 11 27 13 10 15 10
14 1z m-1019 -37 c0 -2 -8 -10 -17 -17 -16 -13 -17 -12 -4 4 13 16 21 21 21
13z m-120 -10 c0 -2 -7 -7 -16 -10 -8 -3 -12 -2 -9 4 6 10 25 14 25 6z m229
-12 c4 3 8 0 9 -7 2 -20 7 -41 13 -52 4 -5 5 -18 4 -27 -2 -10 2 -18 8 -18 8
0 8 -3 2 -8 -14 -10 -17 -32 -4 -32 6 0 8 -9 3 -22 -6 -20 -5 -21 10 -9 10 9
16 10 16 2 0 -6 -5 -11 -11 -11 -8 0 -9 -4 0 -13 6 -8 8 -17 4 -20 -3 -4 0
-13 6 -21 15 -18 6 -37 -13 -30 -7 3 -13 -2 -13 -11 0 -11 6 -14 16 -9 9 3 24
9 33 11 15 4 16 9 6 27 -15 25 -22 79 -9 57 5 -8 7 -21 3 -29 -4 -11 -1 -13 9
-7 8 4 11 4 6 0 -4 -5 0 -19 8 -32 9 -13 12 -23 8 -22 -4 1 -17 1 -28 0 -17
-1 -18 -3 -5 -11 13 -8 12 -10 -4 -10 -11 0 -16 -3 -13 -7 4 -3 2 -12 -5 -20
-9 -11 -6 -13 20 -8 20 3 32 1 32 -5 0 -6 -4 -9 -9 -5 -5 3 -12 1 -16 -5 -4
-6 -11 -8 -16 -5 -5 3 -6 -1 -3 -10 5 -12 10 -13 20 -4 7 6 18 8 24 4 5 -3 10
-2 10 2 0 5 6 17 13 28 11 14 16 15 22 5 6 -9 4 -11 -5 -5 -10 6 -12 4 -7 -9
4 -10 3 -15 -3 -11 -9 6 -14 -7 -11 -27 0 -4 -7 -4 -16 -1 -11 5 -14 3 -9 -6
5 -7 17 -10 28 -8 18 5 18 4 4 -18 -14 -21 -14 -24 0 -36 13 -11 15 -10 14 2
-4 23 -1 39 8 39 4 0 8 -14 8 -31 1 -17 6 -34 11 -38 10 -7 13 -62 3 -56 -4 3
-11 -2 -14 -11 -3 -8 -2 -12 4 -9 5 3 7 -4 5 -15 -2 -12 4 -24 16 -31 16 -8
18 -13 8 -25 -14 -17 -29 -18 -29 -3 0 5 4 7 10 4 6 -4 7 1 3 11 -5 15 -7 15
-15 0 -5 -9 -13 -14 -19 -11 -5 4 -9 -1 -9 -9 0 -10 -6 -13 -17 -9 -12 5 -14
3 -8 -8 4 -8 5 -11 1 -7 -4 3 -17 -3 -28 -14 -11 -11 -22 -17 -26 -14 -3 4 5
16 17 27 12 12 20 27 17 34 -3 10 5 12 29 11 19 -2 32 1 29 5 -3 5 1 9 8 10
10 0 10 2 -1 6 -11 5 -11 7 0 15 11 8 11 9 -1 5 -8 -2 -14 -10 -12 -16 1 -6
-2 -11 -8 -11 -14 0 -13 23 2 38 8 8 8 15 -3 28 -12 16 -12 17 4 11 11 -4 16
-3 12 3 -3 6 1 7 9 4 9 -3 16 -2 16 4 0 17 -28 22 -40 7 -7 -8 -17 -12 -22 -9
-6 4 -5 10 3 16 11 7 10 8 -4 4 -12 -4 -16 -2 -11 6 5 7 3 8 -6 3 -8 -5 -11
-4 -7 3 9 13 -2 44 -13 37 -5 -3 -12 0 -16 6 -5 8 -3 9 7 4 11 -7 12 -6 3 6
-6 8 -10 22 -9 32 2 9 -1 14 -6 11 -5 -3 -9 -2 -8 3 1 4 1 16 0 27 -1 15 -4
16 -16 6 -14 -12 -18 -9 -12 8 1 4 6 6 10 4 4 -1 0 9 -9 22 -8 14 -15 27 -15
30 1 4 -1 5 -2 4 -2 -2 -11 3 -20 11 -12 9 -17 10 -17 2 0 -7 -4 -9 -10 -6 -9
6 -14 -8 -11 -28 1 -4 -12 -5 -28 -2 -25 4 -33 0 -52 -27 -13 -17 -18 -29 -12
-25 6 4 14 2 16 -3 3 -6 4 -5 3 2 -6 25 14 49 32 39 9 -4 24 -6 32 -4 14 4 -7
-16 -55 -52 -14 -11 -15 -15 -5 -16 10 0 8 -4 -5 -10 -18 -9 -18 -9 3 -4 12 3
32 8 45 11 19 5 20 4 6 -8 -16 -13 -23 -51 -7 -42 4 3 8 0 8 -7 0 -7 3 -9 6
-6 4 4 1 13 -6 22 -14 17 0 21 18 3 7 -7 8 -17 2 -28 -7 -13 -5 -17 8 -16 9 1
26 7 37 13 16 10 17 14 6 22 -8 5 -9 11 -3 15 5 3 13 -2 17 -12 4 -11 -2 -24
-20 -39 -14 -13 -22 -23 -18 -23 4 0 1 -5 -7 -11 -13 -8 -12 -9 4 -7 10 2 21
-3 23 -10 3 -8 -2 -10 -14 -6 -11 4 -14 3 -7 -3 6 -4 10 -21 8 -38 -2 -22 -1
-26 6 -15 9 13 11 13 20 0 6 -9 10 -10 10 -3 0 6 -7 18 -15 27 -9 8 -11 17 -6
21 5 3 16 -4 24 -15 7 -11 17 -17 20 -13 4 3 7 0 7 -7 0 -9 6 -8 20 5 11 10
20 13 20 7 0 -6 -5 -14 -11 -17 -6 -4 -8 -13 -5 -21 3 -7 -3 -18 -12 -23 -9
-6 -12 -11 -6 -11 5 0 15 5 22 12 7 7 12 8 12 2 0 -6 -9 -19 -20 -29 -14 -13
-20 -14 -20 -5 0 7 -3 11 -6 8 -3 -4 -1 -16 6 -27 9 -18 14 -19 31 -10 12 6
23 8 27 5 3 -3 0 -6 -6 -6 -7 0 -12 -7 -12 -16 0 -8 4 -13 9 -10 4 3 7 -8 5
-25 -3 -22 0 -28 9 -23 7 4 7 1 -2 -7 -10 -11 -15 -11 -18 -1 -3 6 -12 12 -21
11 -11 0 -12 -2 -4 -6 27 -11 10 -20 -24 -13 -39 9 -49 16 -49 33 -1 7 -7 11
-14 9 -7 -1 -10 2 -6 8 3 5 2 10 -4 10 -6 0 -8 6 -5 14 3 8 1 23 -5 34 -8 15
-6 23 8 36 9 9 26 16 37 17 11 0 14 3 6 6 -7 3 -20 1 -30 -3 -9 -4 -19 -8 -22
-8 -3 -1 -11 -5 -17 -9 -7 -5 -13 -4 -13 2 0 5 4 12 10 16 11 7 2 35 -12 35
-6 0 -5 -7 2 -17 7 -10 1 -4 -14 12 -49 55 -49 55 -34 72 7 9 8 14 2 10 -7 -4
-15 0 -18 9 -4 9 -9 14 -13 11 -3 -4 0 -13 7 -22 8 -10 9 -15 1 -15 -6 0 -11
5 -11 10 0 6 -5 10 -11 10 -12 0 -29 17 -46 48 -11 18 -10 20 2 16 23 -9 18 6
-10 27 -14 12 -22 26 -18 34 3 8 0 15 -6 15 -6 0 -11 5 -11 11 0 5 5 7 11 3 7
-4 6 3 -2 17 -7 13 -13 29 -14 34 0 6 -8 10 -17 10 -9 0 -20 4 -25 9 -4 5 -3
6 5 2 6 -4 12 -2 12 4 0 6 5 8 12 4 8 -5 9 -2 5 10 -4 10 -3 15 3 11 6 -3 13
1 16 10 6 13 8 14 15 3 5 -8 2 -16 -9 -20 -14 -7 -14 -7 3 -5 14 2 19 9 17 25
-2 13 3 25 12 28 8 3 13 14 11 26 -3 15 -1 17 9 9 15 -13 27 -5 20 14 -7 18
15 30 29 16 15 -15 -21 -54 -42 -46 -13 5 -14 4 -3 -6 9 -10 15 -10 24 -1 17
17 33 15 19 -2 -9 -11 -8 -15 5 -20 9 -4 14 -9 11 -12 -3 -3 -14 -1 -26 5 -17
10 -19 8 -16 -10 3 -12 12 -31 22 -41 17 -19 17 -20 -2 -34 -10 -8 -14 -14 -8
-14 5 0 18 9 28 20 11 13 25 18 37 14 10 -3 18 -1 18 5 0 6 1 14 3 18 1 4 -13
8 -32 9 -21 1 -29 -1 -20 -7 7 -4 10 -11 7 -14 -9 -9 -26 2 -38 24 -8 17 -5
18 36 16 24 -2 50 -7 57 -13 15 -12 47 -12 47 0 0 5 -10 6 -22 3 -23 -7 -23
-7 -3 8 12 10 22 12 26 5 4 -5 9 -3 12 7 5 10 3 14 -5 9 -7 -5 -8 -3 -3 6 5 9
4 11 -3 6 -8 -4 -10 -2 -6 7 3 8 1 18 -5 22 -6 3 -9 0 -5 -8 3 -8 -2 -20 -11
-27 -18 -15 -21 0 -3 18 9 9 9 12 -2 12 -9 0 -8 5 6 15 16 12 17 16 4 24 -9 7
-19 6 -27 -1 -10 -8 -12 -5 -9 13 3 13 5 26 5 29 1 3 5 -1 9 -8 5 -7 18 -14
31 -17 14 -2 19 0 15 7 -5 7 -2 8 6 3 9 -6 11 -4 5 5 -6 9 -4 11 5 5 8 -5 11
-4 6 3 -3 6 -16 9 -27 7 -13 -3 -19 0 -16 8 2 7 13 11 23 9 17 -2 17 -1 4 10
-22 19 -23 38 -2 32 13 -4 13 -3 -2 7 -15 9 -21 9 -24 1 -2 -7 -9 -9 -15 -5
-7 4 -5 -1 2 -11 13 -16 13 -18 0 -16 -7 1 -23 2 -34 1 -18 -1 -19 -2 -2 -12
9 -5 17 -15 17 -21 0 -9 -3 -9 -11 -1 -6 6 -18 9 -27 6 -11 -5 -13 -3 -7 7 5
8 4 11 -3 6 -11 -7 -7 -31 10 -53 7 -8 3 -11 -11 -10 -11 1 -23 7 -26 15 -3 8
0 10 6 6 7 -4 9 0 5 14 -4 11 -2 23 4 27 6 3 8 11 5 16 -3 5 1 6 10 3 13 -5
15 -1 11 19 -3 15 1 27 8 30 9 4 12 -3 10 -19 l-2 -24 26 21 c15 11 28 25 28
30 3 20 6 23 11 11 2 -6 8 -10 12 -8z m963 -29 c3 3 5 -1 5 -7 0 -7 2 -19 4
-27 2 -7 -3 -16 -11 -19 -8 -2 -12 -1 -8 3 12 12 -11 45 -27 39 -12 -5 -11
-10 5 -27 11 -11 17 -23 14 -26 -3 -3 -12 3 -20 13 -8 11 -14 16 -15 10 -5
-41 -4 -82 1 -79 4 2 7 -2 7 -10 0 -8 -5 -12 -11 -9 -6 3 -3 -1 7 -9 11 -9 14
-18 8 -21 -5 -4 -16 2 -23 13 -12 17 -16 17 -33 5 -17 -13 -14 -19 8 -15 18 3
46 -20 41 -34 -4 -8 -10 -12 -15 -9 -5 3 -7 9 -4 14 3 5 0 12 -6 16 -16 9 -30
-18 -17 -33 6 -7 7 -13 2 -13 -4 0 -3 -5 4 -12 9 -9 7 -15 -6 -25 -9 -8 -11
-11 -3 -7 10 5 12 3 6 -6 -6 -9 -4 -11 4 -5 7 4 5 -5 -5 -20 -18 -28 -18 -28
4 -16 18 10 21 9 16 -3 -3 -9 -9 -15 -12 -14 -20 2 -33 -3 -27 -11 3 -5 -1
-16 -10 -24 -13 -13 -13 -16 0 -21 8 -3 15 -11 15 -17 0 -8 -4 -8 -15 1 -10 9
-15 9 -15 1 0 -6 5 -11 12 -11 15 0 1 -13 -17 -16 -8 -1 -13 6 -12 17 1 10 4
19 8 19 16 0 0 35 -17 38 -11 2 -15 0 -9 -5 11 -9 16 -53 6 -53 -4 0 -8 -10
-8 -22 -2 -19 0 -20 8 -8 8 12 10 12 7 1 -2 -8 -14 -15 -25 -16 -14 -1 -19 3
-16 12 3 7 9 13 14 13 5 0 4 8 -2 18 -14 22 -46 26 -46 6 0 -8 6 -13 13 -10
22 9 24 -9 4 -42 -21 -33 -36 -40 -42 -20 -3 7 -7 5 -11 -6 -5 -11 -3 -15 5
-10 7 4 8 3 4 -4 -4 -7 -2 -10 6 -9 7 2 9 2 5 -1 -4 -2 -1 -9 8 -16 15 -10 14
-12 -4 -12 -11 0 -17 4 -15 8 3 4 3 8 0 8 -3 0 -10 -9 -16 -21 -10 -19 -10
-20 9 -10 27 15 31 14 31 -6 0 -11 3 -14 8 -8 8 12 27 13 38 3 4 -5 -1 -8 -12
-8 -16 0 -16 -2 -4 -10 11 -7 7 -8 -15 -6 -23 3 -29 8 -27 22 2 14 -1 13 -12
-6 -9 -14 -15 -19 -16 -11 0 11 -3 11 -15 1 -10 -9 -15 -9 -15 -1 0 6 4 11 9
11 6 0 8 10 6 22 -3 12 1 28 8 37 10 12 9 14 -5 8 -10 -3 -18 -2 -18 3 0 6 7
10 16 10 8 0 13 4 10 9 -6 9 22 26 37 23 4 -1 7 6 7 16 0 10 -8 18 -19 19 -13
1 -18 -3 -15 -12 7 -18 -17 -31 -26 -14 -10 18 -8 34 5 35 6 1 15 2 20 3 6 1
3 6 -5 11 -10 7 -11 10 -2 10 7 0 15 -7 18 -15 4 -8 10 -12 15 -9 5 3 6 11 2
17 -4 7 -8 25 -9 41 -1 20 1 24 7 15 5 -8 6 -23 3 -34 -6 -18 -4 -18 20 4 27
26 37 53 11 31 -12 -10 -16 -9 -21 4 -3 8 -4 21 -1 28 3 7 6 3 6 -10 1 -13 5
-21 10 -17 6 3 8 15 6 26 -3 16 -1 18 9 10 7 -6 22 -9 32 -5 16 5 16 4 4 -5
-8 -6 -12 -11 -8 -11 3 0 13 -3 21 -6 11 -4 15 0 13 12 -2 10 -8 20 -14 22 -7
2 -10 8 -7 12 3 5 1 11 -5 15 -5 3 -10 -1 -10 -9 0 -9 -5 -16 -10 -16 -7 0 -7
6 0 20 6 11 15 20 21 20 5 0 2 11 -7 24 -15 24 -15 25 9 21 16 -3 24 0 24 10
0 10 -6 13 -18 10 -9 -3 -21 0 -25 6 -4 8 -3 9 5 5 6 -4 18 -2 26 4 12 10 15
10 15 0 0 -17 13 -4 16 16 2 9 -3 14 -11 10 -15 -5 -29 20 -19 36 3 5 13 7 21
4 9 -4 13 -1 10 6 -2 7 -9 12 -14 11 -5 -1 -10 4 -10 12 0 8 4 12 8 10 4 -3
10 3 13 12 4 9 1 20 -6 25 -19 11 0 10 23 -2 13 -7 25 -8 37 -1 9 6 13 11 9
11 -4 0 -3 9 3 20 8 16 15 18 29 10 10 -5 20 -7 23 -5z m-994 -43 c15 12 16
11 4 -4 -15 -19 -7 -42 10 -32 7 5 8 2 3 -6 -6 -10 -12 -8 -27 9 -10 13 -18
28 -17 35 0 7 3 6 6 -2 4 -10 8 -10 21 0z m1032 -38 c-7 -7 -17 -14 -22 -14
-6 0 -5 7 2 15 7 9 10 18 6 22 -3 3 -6 0 -6 -7 0 -7 -3 -10 -6 -7 -4 4 -1 14
6 22 12 15 14 15 23 0 5 -10 4 -21 -3 -31z m-62 -25 c-10 -7 -10 -9 1 -9 8 0
11 -6 7 -16 -8 -21 11 -45 30 -37 10 4 12 0 8 -11 -4 -12 -10 -13 -24 -6 -24
13 -40 13 -20 0 13 -8 13 -10 1 -10 -11 0 -9 -4 5 -14 18 -14 18 -15 2 -21
-10 -4 -15 -12 -11 -18 3 -6 1 -7 -6 -3 -6 4 -9 12 -6 17 4 5 2 9 -3 9 -15 0
-21 -37 -9 -49 6 -6 7 -11 3 -11 -5 0 -2 -8 5 -17 13 -16 12 -17 -3 -5 -10 8
-23 10 -30 6 -10 -6 -10 -4 -3 7 9 12 10 24 6 52 0 4 0 9 2 10 1 2 -4 11 -11
20 -11 12 -11 17 0 23 7 4 10 4 6 -1 -11 -12 11 -35 27 -29 7 3 12 14 10 25
-2 10 0 21 6 24 5 4 5 14 -1 26 -6 10 -8 19 -5 19 4 0 3 6 -2 13 -4 6 -8 23
-9 36 l-1 25 19 -24 c15 -18 16 -25 6 -31z m-1012 16 c3 -17 -12 -20 -21 -5
-7 12 4 34 13 25 3 -3 7 -12 8 -20z m1039 5 c-10 -17 17 -22 34 -6 20 19 31
20 31 5 0 -5 -4 -7 -10 -4 -6 3 -7 -1 -4 -10 4 -10 2 -14 -8 -10 -9 4 -22 -5
-32 -22 l-17 -28 20 23 c19 22 38 31 26 12 -3 -5 -1 -10 4 -10 6 0 11 5 11 11
0 5 4 7 10 4 6 -4 5 -13 -2 -25 -9 -14 -21 -18 -42 -16 -28 3 -30 6 -32 50 -1
26 2 44 7 40 5 -3 7 -9 4 -14z m289 2 c3 -5 -1 -9 -9 -9 -8 0 -12 4 -9 9 3 4
7 8 9 8 2 0 6 -4 9 -8z m-204 -23 c0 -5 5 -7 10 -4 6 3 10 0 10 -7 -1 -18 -28
-53 -36 -45 -4 4 -1 13 5 21 8 10 9 16 1 21 -13 8 -13 25 0 25 6 0 10 -5 10
-11z m-1160 -29 c-9 -5 -9 -9 -1 -14 6 -4 11 -12 11 -17 0 -6 -4 -7 -10 -4
-16 10 -11 -1 7 -16 11 -10 14 -10 9 -1 -4 7 -2 12 4 12 6 0 9 4 6 9 -3 4 5
18 18 30 18 17 26 19 31 10 5 -7 4 -10 -2 -6 -14 9 -20 -9 -18 -53 1 -19 0
-30 -2 -23 -2 6 -15 10 -27 7 -37 -6 -47 16 -37 79 0 5 6 5 12 1 8 -5 8 -9 -1
-14z m29 -6 c-15 -18 -22 -13 -13 10 3 9 10 13 16 10 5 -3 4 -12 -3 -20z
m1180 -8 c-12 -13 -11 -26 2 -26 5 0 7 5 4 10 -10 15 28 11 50 -6 17 -13 18
-16 5 -25 -12 -8 -10 -9 8 -4 12 3 22 2 22 -3 0 -15 -37 -21 -50 -8 -8 8 -10
7 -5 -5 4 -10 0 -16 -10 -16 -8 0 -15 4 -15 9 0 4 -5 8 -12 8 -6 0 -4 -8 6
-19 16 -17 16 -19 -1 -25 -13 -5 -25 2 -45 26 -15 18 -28 36 -28 41 0 4 -5 7
-10 7 -6 0 3 -18 21 -40 28 -34 30 -42 18 -57 -11 -15 -11 -16 1 -5 22 19 32
14 13 -8 -13 -14 -20 -17 -30 -8 -10 8 -10 14 -2 24 13 15 1 40 -32 69 -24 20
-24 20 -9 0 8 -11 21 -26 28 -33 21 -23 13 -36 -9 -16 -20 18 -21 18 -34 1 -8
-11 -16 -14 -19 -8 -4 6 2 16 13 23 14 8 17 16 10 24 -21 25 6 50 49 45 7 -1
20 11 29 27 13 22 20 27 29 18 8 -7 9 -15 3 -20z m-289 -6 c0 -5 -5 -10 -11
-10 -5 0 -7 5 -4 10 3 6 8 10 11 10 2 0 4 -4 4 -10z m-1165 -10 c3 -5 1 -10
-4 -10 -6 0 -11 5 -11 10 0 6 2 10 4 10 3 0 8 -4 11 -10z m1329 -46 c3 -9 -6
-31 -22 -52 -15 -20 -19 -31 -9 -23 14 11 20 11 32 1 9 -7 18 -10 22 -7 9 10
41 -11 54 -34 7 -13 7 -19 1 -15 -17 10 -25 -14 -10 -32 12 -16 11 -16 -6 -2
-11 8 -29 15 -40 15 -12 1 -27 4 -33 8 -15 9 -18 47 -4 47 5 0 8 -8 7 -17 -1
-13 7 -18 28 -18 33 0 46 19 20 29 -14 5 -15 4 -5 -8 9 -11 7 -13 -14 -13 -14
0 -25 3 -25 8 0 5 5 9 12 9 23 0 -3 14 -27 15 -14 0 -25 5 -26 10 0 6 -6 16
-12 24 -10 12 -9 14 5 8 22 -8 52 35 35 52 -8 8 -8 11 0 11 6 0 14 -7 17 -16z
m251 -13 c3 -5 2 -12 -3 -15 -5 -3 -9 1 -9 9 0 17 3 19 12 6z m-1295 -15 c0
-3 -4 -8 -10 -11 -5 -3 -10 -1 -10 4 0 6 5 11 10 11 6 0 10 -2 10 -4z m850 -6
c0 -5 -8 -10 -17 -10 -15 0 -16 2 -3 10 19 12 20 12 20 0z m385 0 c3 -5 1 -10
-4 -10 -6 0 -11 5 -11 10 0 6 2 10 4 10 3 0 8 -4 11 -10z m-1637 -25 c-3 -3
-9 2 -12 12 -6 14 -5 15 5 6 7 -7 10 -15 7 -18z m477 7 c-2 -3 0 -13 5 -23 13
-24 -2 -32 -35 -17 -18 8 -22 14 -13 20 10 6 10 8 -2 8 -13 0 -13 2 -1 9 14 9
54 11 46 3z m1010 -6 c12 -11 10 -13 -10 -13 -16 0 -22 4 -18 13 3 8 7 14 10
14 2 0 11 -6 18 -14z m-1279 -4 c-3 -3 -1 -11 6 -19 6 -7 7 -17 3 -21 -4 -4
-10 -1 -12 6 -3 6 -9 10 -13 7 -5 -3 -14 3 -19 13 -9 17 -7 20 15 20 14 0 22
-3 20 -6z m395 -2 c9 13 10 13 6 0 -2 -8 -16 -16 -30 -17 -22 -1 -24 1 -14 12
9 9 14 10 20 1 5 -8 10 -7 18 4z m-567 -36 c3 -8 2 -12 -4 -9 -6 3 -10 10 -10
16 0 14 7 11 14 -7z m429 -11 c18 -9 37 -17 42 -18 6 0 11 -6 11 -12 1 -7 3
-15 4 -18 1 -3 3 -13 5 -22 3 -29 17 -53 26 -47 5 3 9 0 9 -5 0 -6 -3 -11 -7
-11 -11 0 -40 20 -29 20 5 0 4 6 -1 13 -6 6 -9 20 -8 30 2 10 -1 14 -7 11 -7
-4 -8 -2 -4 4 5 8 2 10 -9 6 -9 -4 -15 -3 -14 2 3 18 -1 34 -9 34 -20 0 -8
-38 14 -49 14 -6 23 -15 19 -20 -3 -5 0 -13 6 -17 8 -5 4 -13 -11 -24 l-24
-18 33 4 c25 3 39 -3 69 -31 33 -32 35 -36 20 -48 -12 -9 -14 -18 -7 -30 7
-11 6 -17 -1 -17 -5 0 -10 8 -10 17 0 15 -2 14 -15 -3 -8 -10 -15 -14 -15 -8
0 5 5 15 11 21 16 16 1 37 -16 23 -18 -15 -46 0 -69 36 -17 25 -17 27 4 49 18
20 20 27 10 45 -9 17 -15 19 -23 11 -7 -7 -12 -19 -12 -28 0 -9 -6 -18 -14
-21 -8 -3 -12 1 -9 9 3 8 -1 22 -10 31 -11 13 -12 21 -3 31 16 20 3 27 -26 16
-33 -12 -37 -11 -23 6 7 8 18 15 25 15 7 0 15 7 19 15 7 19 10 19 49 -2z m944
-8 c-2 -5 -11 -9 -20 -7 -8 1 -18 -2 -22 -8 -3 -5 -1 -10 4 -10 8 0 7 -7 -1
-19 -7 -11 -17 -17 -23 -14 -5 4 -6 2 -2 -2 11 -13 37 -15 37 -4 0 6 5 7 10 4
6 -4 8 -10 5 -15 -3 -5 -1 -11 4 -15 6 -3 8 4 6 16 -3 13 1 30 8 38 11 14 10
14 -6 2 -21 -17 -34 -9 -13 8 20 17 38 4 31 -20 -4 -11 -2 -19 5 -19 6 0 8 5
5 10 -3 6 -3 10 2 11 4 0 18 2 31 3 12 2 22 -1 22 -6 0 -4 -5 -8 -11 -8 -8 0
-7 -6 2 -17 12 -16 12 -17 -2 -5 -9 7 -25 9 -34 5 -18 -6 -60 -43 -50 -43 3 0
0 -6 -7 -14 -9 -10 -15 -11 -20 -2 -5 7 -8 5 -8 -6 0 -10 -4 -18 -8 -18 -5 0
-9 7 -9 15 0 14 10 19 30 16 4 0 7 4 7 9 0 6 0 13 0 18 0 4 -9 8 -20 8 -18 1
-25 -7 -21 -28 1 -10 -13 -10 -22 -1 -4 3 1 15 10 25 12 13 14 21 6 29 -13 13
4 62 19 53 4 -3 11 1 14 10 6 16 46 18 41 1z m-770 -21 c-3 -3 -12 -4 -19 -1
-8 3 -5 6 6 6 11 1 17 -2 13 -5z m-592 -14 c-3 -5 -12 -10 -18 -10 -7 0 -6 4
3 10 19 12 23 12 15 0z m1672 -5 c0 -8 -4 -12 -9 -9 -5 3 -6 10 -3 15 9 13 12
11 12 -6z m-547 1 c0 -2 -7 -7 -16 -10 -8 -3 -12 -2 -9 4 6 10 25 14 25 6z
m200 -66 c-8 -5 -19 -10 -25 -10 -5 0 -3 5 5 10 8 5 20 10 25 10 6 0 3 -5 -5
-10z m-38 -30 c6 0 8 -3 5 -6 -3 -4 -2 -15 4 -25 7 -13 6 -19 -1 -19 -6 0 -9
-4 -5 -9 12 -21 -15 -20 -34 1 -26 28 -27 42 -2 26 11 -7 18 -15 15 -19 -2 -4
0 -10 5 -14 6 -3 8 4 5 17 -3 13 -6 29 -6 35 -1 9 -5 10 -15 2 -7 -6 -13 -8
-13 -4 0 4 -6 3 -12 -3 -7 -5 -24 -8 -38 -6 -14 1 -19 0 -12 -3 10 -4 9 -9 -5
-19 -15 -12 -15 -13 -1 -8 11 4 18 -1 23 -15 7 -23 20 -27 30 -11 3 6 11 10
17 10 6 0 5 -7 -4 -17 -9 -10 -14 -23 -11 -29 2 -6 -4 -11 -12 -11 -9 0 -14 6
-11 13 3 7 -2 18 -10 24 -8 7 -14 9 -14 4 -1 -12 -24 27 -26 44 -3 17 34 41
56 35 12 -3 20 2 25 16 6 19 8 19 21 6 9 -8 20 -15 26 -15z m-198 -6 c3 -8 2
-12 -4 -9 -6 3 -10 10 -10 16 0 14 7 11 14 -7z m146 -60 c-13 -15 -34 -9 -25
7 4 5 1 9 -5 9 -6 0 -8 5 -5 10 4 7 13 6 26 -1 16 -8 18 -13 9 -25z m355 17
c3 -5 2 -12 -3 -15 -5 -3 -9 1 -9 9 0 17 3 19 12 6z m-305 -41 c11 -7 11 -10
2 -10 -7 0 -11 -4 -8 -8 4 -7 -19 -8 -43 -3 -6 1 21 31 28 31 3 0 13 -5 21
-10z m-1136 -76 c3 -8 2 -12 -4 -9 -6 3 -10 10 -10 16 0 14 7 11 14 -7z m81
-14 c3 -5 1 -10 -4 -10 -6 0 -11 5 -11 10 0 6 2 10 4 10 3 0 8 -4 11 -10z
m-185 -40 c0 -5 -2 -10 -4 -10 -3 0 -8 5 -11 10 -3 6 -1 10 4 10 6 0 11 -4 11
-10z m175 -40 c-3 -5 -12 -10 -18 -10 -7 0 -6 4 3 10 19 12 23 12 15 0z m-45
-74 c0 -3 -4 -8 -10 -11 -5 -3 -10 -1 -10 4 0 6 5 11 10 11 6 0 10 -2 10 -4z
m215 -14 c-3 -3 -11 0 -18 7 -9 10 -8 11 6 5 10 -3 15 -9 12 -12z m-255 -8 c0
-8 -19 -13 -24 -6 -3 5 1 9 9 9 8 0 15 -2 15 -3z m371 -37 c-10 -9 -11 -8 -5
6 3 10 9 15 12 12 3 -3 0 -11 -7 -18z m-126 -27 c-3 -5 -12 -10 -18 -10 -7 0
-6 4 3 10 19 12 23 12 15 0z m-212 -35 c-7 -21 -12 -19 -10 4 0 11 5 18 9 15
4 -3 5 -11 1 -19z m147 20 c0 -7 -30 -13 -34 -7 -3 4 4 9 15 9 10 1 19 0 19
-2z m-84 -47 c3 -4 -1 -5 -10 -4 -8 1 -18 5 -22 8 -3 4 1 5 10 4 8 -1 18 -5
22 -8z m64 6 c0 -8 -19 -13 -24 -6 -3 5 1 9 9 9 8 0 15 -2 15 -3z m56 -6 c3
-4 -1 -5 -10 -4 -8 1 -18 5 -22 8 -3 4 1 5 10 4 8 -1 18 -5 22 -8z m144 -14
c0 -8 -19 -13 -24 -6 -3 5 1 9 9 9 8 0 15 -2 15 -3z m-5 -44 c3 -5 1 -10 -4
-10 -6 0 -11 5 -11 10 0 6 2 10 4 10 3 0 8 -4 11 -10z m-95 -20 c0 -5 -5 -10
-11 -10 -5 0 -7 5 -4 10 3 6 8 10 11 10 2 0 4 -4 4 -10z m76 -42 c3 -4 -1 -5
-10 -4 -8 1 -18 5 -22 8 -3 4 1 5 10 4 8 -1 18 -5 22 -8z m178 0 c-3 -4 -11
-5 -19 -1 -21 7 -19 12 4 10 11 0 18 -5 15 -9z m410 4 c3 -5 -1 -9 -9 -9 -8 0
-12 4 -9 9 3 4 7 8 9 8 2 0 6 -4 9 -8z m70 -4 c-3 -4 -11 -5 -19 -1 -21 7 -19
12 4 10 11 0 18 -5 15 -9z m66 8 c0 -3 -4 -8 -10 -11 -5 -3 -10 -1 -10 4 0 6
5 11 10 11 6 0 10 -2 10 -4z m54 -4 c3 -5 -1 -9 -9 -9 -8 0 -12 4 -9 9 3 4 7
8 9 8 2 0 6 -4 9 -8z m-117 -37 c0 -8 -4 -12 -9 -9 -5 3 -6 10 -3 15 9 13 12
11 12 -6z m118 6 c3 -5 2 -12 -3 -15 -5 -3 -9 1 -9 9 0 17 3 19 12 6z m-760
-10 c-9 -8 -36 -10 -30 -2 2 4 11 8 20 8 8 0 13 -3 10 -6z m260 -1 c3 -5 1
-10 -4 -10 -6 0 -11 5 -11 10 0 6 2 10 4 10 3 0 8 -4 11 -10z m-339 -25 c-1
-8 -5 -17 -8 -21 -5 -4 -4 16 1 34 3 9 9 -1 7 -13z m240 0 c-1 -8 -5 -17 -8
-21 -5 -4 -4 16 1 34 3 9 9 -1 7 -13z m40 -11 c1 -9 0 -13 -4 -10 -3 4 -7 14
-8 22 -1 9 0 13 4 10 3 -4 7 -14 8 -22z m240 11 c-1 -8 -5 -17 -8 -21 -5 -4
-4 16 1 34 3 9 9 -1 7 -13z m240 0 c-1 -8 -5 -17 -8 -21 -5 -4 -4 16 1 34 3 9
9 -1 7 -13z m-620 -17 c3 -4 -1 -5 -10 -4 -8 1 -18 5 -22 8 -3 4 1 5 10 4 8
-1 18 -5 22 -8z m500 0 c3 -4 -1 -5 -10 -4 -8 1 -18 5 -22 8 -3 4 1 5 10 4 8
-1 18 -5 22 -8z m80 -3 c-1 -8 -5 -17 -8 -21 -5 -4 -4 16 1 34 3 9 9 -1 7 -13z
m121 -7 c2 -17 0 -19 -7 -8 -5 8 -6 18 -4 22 8 12 10 10 11 -14z m-652 -8 c3
-6 -1 -7 -9 -4 -18 7 -21 14 -7 14 6 0 13 -4 16 -10z m-110 -19 c-9 -8 -36
-10 -30 -2 2 4 11 8 20 8 8 0 13 -3 10 -6z m162 -13 c2 -17 0 -19 -7 -8 -5 8
-6 18 -4 22 8 12 10 10 11 -14z m443 16 c0 -8 -19 -13 -24 -6 -3 5 1 9 9 9 8
0 15 -2 15 -3z m-500 -18 c0 -2 -7 -7 -16 -10 -8 -3 -12 -2 -9 4 6 10 25 14
25 6z m416 -22 c1 -9 0 -13 -4 -10 -3 4 -7 14 -8 22 -1 9 0 13 4 10 3 -4 7
-14 8 -22z m304 16 c0 -5 -4 -10 -10 -10 -5 0 -10 5 -10 10 0 6 5 10 10 10 6
0 10 -4 10 -10z m-940 -14 c0 -3 -4 -8 -10 -11 -5 -3 -10 -1 -10 4 0 6 5 11
10 11 6 0 10 -2 10 -4z m114 -4 c2 -4 -5 -9 -17 -9 -17 -2 -19 0 -7 7 18 12
18 12 24 2z m46 -2 c0 -5 -5 -10 -11 -10 -5 0 -7 5 -4 10 3 6 8 10 11 10 2 0
4 -4 4 -10z m215 1 c-9 -8 -36 -10 -30 -2 2 4 11 8 20 8 8 0 13 -3 10 -6z
m465 -1 c0 -5 -5 -10 -11 -10 -5 0 -7 5 -4 10 3 6 8 10 11 10 2 0 4 -4 4 -10z
m106 -22 c3 -4 -1 -5 -10 -4 -8 1 -18 5 -22 8 -3 4 1 5 10 4 8 -1 18 -5 22 -8z
m-946 -18 c0 -5 -2 -10 -4 -10 -3 0 -8 5 -11 10 -3 6 -1 10 4 10 6 0 11 -4 11
-10z m160 6 c0 -3 -4 -8 -10 -11 -5 -3 -10 -1 -10 4 0 6 5 11 10 11 6 0 10 -2
10 -4z m34 -4 c3 -5 -1 -9 -9 -9 -8 0 -12 4 -9 9 3 4 7 8 9 8 2 0 6 -4 9 -8z
m126 4 c0 -3 -4 -8 -10 -11 -5 -3 -10 -1 -10 4 0 6 5 11 10 11 6 0 10 -2 10
-4z m240 -6 c0 -5 -2 -10 -4 -10 -3 0 -8 5 -11 10 -3 6 -1 10 4 10 6 0 11 -4
11 -10z m157 -5 c0 -8 -4 -12 -9 -9 -5 3 -6 10 -3 15 9 13 12 11 12 -6z m83 9
c0 -8 -19 -13 -24 -6 -3 5 1 9 9 9 8 0 15 -2 15 -3z m-690 -20 c0 -8 -19 -13
-24 -6 -3 5 1 9 9 9 8 0 15 -2 15 -3z m821 -17 c-10 -9 -11 -8 -5 6 3 10 9 15
12 12 3 -3 0 -11 -7 -18z m-656 -7 c3 -5 1 -10 -4 -10 -6 0 -11 5 -11 10 0 6
2 10 4 10 3 0 8 -4 11 -10z m305 -5 c0 -2 -9 -3 -19 -2 -11 0 -18 5 -15 9 4 6
34 0 34 -7z m136 3 c3 -4 -1 -5 -10 -4 -8 1 -18 5 -22 8 -3 4 1 5 10 4 8 -1
18 -5 22 -8z m84 2 c0 -5 -2 -10 -4 -10 -3 0 -8 5 -11 10 -3 6 -1 10 4 10 6 0
11 -4 11 -10z m-706 -18 c3 -5 -1 -9 -9 -9 -8 0 -12 4 -9 9 3 4 7 8 9 8 2 0 6
-4 9 -8z m266 -22 c0 -5 -5 -10 -11 -10 -5 0 -7 5 -4 10 3 6 8 10 11 10 2 0 4
-4 4 -10z m280 6 c0 -3 -4 -8 -10 -11 -5 -3 -10 -1 -10 4 0 6 5 11 10 11 6 0
10 -2 10 -4z m35 -6 c3 -5 1 -10 -4 -10 -6 0 -11 5 -11 10 0 6 2 10 4 10 3 0
8 -4 11 -10z m160 0 c3 -5 1 -10 -4 -10 -6 0 -11 5 -11 10 0 6 2 10 4 10 3 0
8 -4 11 -10z m85 6 c0 -3 -4 -8 -10 -11 -5 -3 -10 -1 -10 4 0 6 5 11 10 11 6
0 10 -2 10 -4z m-345 -15 c3 -5 2 -12 -3 -15 -5 -3 -9 1 -9 9 0 17 3 19 12 6z
m-395 -11 c0 -5 -2 -10 -4 -10 -3 0 -8 5 -11 10 -3 6 -1 10 4 10 6 0 11 -4 11
-10z m564 2 c3 -5 -1 -9 -9 -9 -8 0 -12 4 -9 9 3 4 7 8 9 8 2 0 6 -4 9 -8z
m236 -2 c0 -5 -2 -10 -4 -10 -3 0 -8 5 -11 10 -3 6 -1 10 4 10 6 0 11 -4 11
-10z m-140 -20 c0 -5 -2 -10 -4 -10 -3 0 -8 5 -11 10 -3 6 -1 10 4 10 6 0 11
-4 11 -10z m40 0 c0 -5 -5 -10 -11 -10 -5 0 -7 5 -4 10 3 6 8 10 11 10 2 0 4
-4 4 -10z m40 6 c0 -3 -4 -8 -10 -11 -5 -3 -10 -1 -10 4 0 6 5 11 10 11 6 0
10 -2 10 -4z m-943 -21 c0 -8 -4 -12 -9 -9 -5 3 -6 10 -3 15 9 13 12 11 12 -6z
m114 -12 c13 -16 12 -17 -3 -4 -10 7 -18 15 -18 17 0 8 8 3 21 -13z m86 2 c0
-8 -4 -12 -9 -9 -4 3 -8 9 -8 15 0 5 4 9 8 9 5 0 9 -7 9 -15z m173 11 c0 -2
-8 -10 -17 -17 -16 -13 -17 -12 -4 4 13 16 21 21 21 13z m190 -2 c0 -8 -19
-13 -24 -6 -3 5 1 9 9 9 8 0 15 -2 15 -3z m420 -24 c0 -5 -5 -10 -11 -10 -5 0
-7 5 -4 10 3 6 8 10 11 10 2 0 4 -4 4 -10z m-1023 -25 c0 -8 -4 -12 -9 -9 -5
3 -6 10 -3 15 9 13 12 11 12 -6z m43 11 c0 -3 -4 -8 -10 -11 -5 -3 -10 -1 -10
4 0 6 5 11 10 11 6 0 10 -2 10 -4z m880 -6 c0 -5 -2 -10 -4 -10 -3 0 -8 5 -11
10 -3 6 -1 10 4 10 6 0 11 -4 11 -10z m35 0 c3 -5 1 -10 -4 -10 -6 0 -11 5
-11 10 0 6 2 10 4 10 3 0 8 -4 11 -10z m-295 -20 c0 -5 -2 -10 -4 -10 -3 0 -8
5 -11 10 -3 6 -1 10 4 10 6 0 11 -4 11 -10z m360 0 c0 -5 -5 -10 -11 -10 -5 0
-7 5 -4 10 3 6 8 10 11 10 2 0 4 -4 4 -10z m-939 -17 c13 -16 12 -17 -3 -4
-10 7 -18 15 -18 17 0 8 8 3 21 -13z m79 13 c0 -2 -8 -10 -17 -17 -16 -13 -17
-12 -4 4 13 16 21 21 21 13z m80 -10 c0 -3 -4 -8 -10 -11 -5 -3 -10 -1 -10 4
0 6 5 11 10 11 6 0 10 -2 10 -4z m380 -26 c0 -5 -2 -10 -4 -10 -3 0 -8 5 -11
10 -3 6 -1 10 4 10 6 0 11 -4 11 -10z m40 6 c0 -3 -4 -8 -10 -11 -5 -3 -10 -1
-10 4 0 6 5 11 10 11 6 0 10 -2 10 -4z m80 -6 c0 -5 -2 -10 -4 -10 -3 0 -8 5
-11 10 -3 6 -1 10 4 10 6 0 11 -4 11 -10z m40 6 c0 -3 -4 -8 -10 -11 -5 -3
-10 -1 -10 4 0 6 5 11 10 11 6 0 10 -2 10 -4z m115 -6 c3 -5 1 -10 -4 -10 -6
0 -11 5 -11 10 0 6 2 10 4 10 3 0 8 -4 11 -10z m-615 -4 c0 -2 -8 -10 -17 -17
-16 -13 -17 -12 -4 4 13 16 21 21 21 13z m78 -21 c-3 -3 -9 2 -12 12 -6 14 -5
15 5 6 7 -7 10 -15 7 -18z m42 11 c0 -3 -4 -8 -10 -11 -5 -3 -10 -1 -10 4 0 6
5 11 10 11 6 0 10 -2 10 -4z m-300 -20 c0 -3 -4 -8 -10 -11 -5 -3 -10 -1 -10
4 0 6 5 11 10 11 6 0 10 -2 10 -4z m240 -46 c0 -5 -2 -10 -4 -10 -3 0 -8 5
-11 10 -3 6 -1 10 4 10 6 0 11 -4 11 -10z m-80 -40 c0 -5 -5 -10 -11 -10 -5 0
-7 5 -4 10 3 6 8 10 11 10 2 0 4 -4 4 -10z m620 -19 c0 -6 -4 -12 -8 -15 -5
-3 -9 1 -9 9 0 8 4 15 9 15 4 0 8 -4 8 -9z m40 5 c0 -3 -4 -8 -10 -11 -5 -3
-10 -1 -10 4 0 6 5 11 10 11 6 0 10 -2 10 -4z m-860 -26 c0 -5 -5 -10 -11 -10
-5 0 -7 5 -4 10 3 6 8 10 11 10 2 0 4 -4 4 -10z m150 -14 c0 -2 -8 -10 -17
-17 -16 -13 -17 -12 -4 4 13 16 21 21 21 13z m181 -13 c13 -16 12 -17 -3 -4
-10 7 -18 15 -18 17 0 8 8 3 21 -13z m289 -33 c0 -5 -5 -10 -11 -10 -5 0 -7 5
-4 10 3 6 8 10 11 10 2 0 4 -4 4 -10z m-321 -33 c8 -10 7 -14 -2 -14 -8 0 -14
6 -14 14 0 7 1 13 2 13 2 0 8 -6 14 -13z m602 -4 c13 -16 12 -17 -3 -4 -10 7
-18 15 -18 17 0 8 8 3 21 -13z m-631 3 c0 -2 -8 -10 -17 -17 -16 -13 -17 -12
-4 4 13 16 21 21 21 13z m65 -5 c3 -5 2 -12 -3 -15 -5 -3 -9 1 -9 9 0 17 3 19
12 6z m159 -7 c3 -8 2 -12 -4 -9 -6 3 -10 10 -10 16 0 14 7 11 14 -7z m130 8
c2 -4 -4 -8 -14 -8 -10 0 -16 4 -14 8 3 4 9 8 14 8 5 0 11 -4 14 -8z m-509
-34 c5 4 5 1 1 -6 -6 -10 -11 -10 -22 -1 -8 6 -14 14 -14 16 0 3 6 0 13 -6 8
-6 18 -7 22 -3z m379 -14 c3 -8 2 -12 -4 -9 -6 3 -10 10 -10 16 0 14 7 11 14
-7z m-514 -18 c0 -2 -8 -10 -17 -17 -16 -13 -17 -12 -4 4 13 16 21 21 21 13z
m640 0 c0 -2 -8 -10 -17 -17 -16 -13 -17 -12 -4 4 13 16 21 21 21 13z m173
-11 c-3 -9 -8 -14 -10 -11 -3 3 -2 9 2 15 9 16 15 13 8 -4z m-683 1 c0 -2 -8
-10 -17 -17 -16 -13 -17 -12 -4 4 13 16 21 21 21 13z m621 -13 c13 -16 12 -17
-3 -4 -10 7 -18 15 -18 17 0 8 8 3 21 -13z m-736 -22 c3 -5 2 -12 -3 -15 -5
-3 -9 1 -9 9 0 17 3 19 12 6z m185 5 c0 -2 -8 -10 -17 -17 -16 -13 -17 -12 -4
4 13 16 21 21 21 13z m156 -22 c1 -9 0 -13 -4 -10 -3 4 -7 14 -8 22 -1 9 0 13
4 10 3 -4 7 -14 8 -22z m482 1 c-3 -3 -9 2 -12 12 -6 14 -5 15 5 6 7 -7 10
-15 7 -18z m-773 6 c-9 -8 -36 -10 -30 -2 2 4 11 8 20 8 8 0 13 -3 10 -6z m32
-6 c0 -8 -4 -12 -9 -9 -5 3 -6 10 -3 15 9 13 12 11 12 -6z m63 7 c0 -5 -7 -9
-15 -9 -8 0 -12 4 -9 9 3 4 9 8 15 8 5 0 9 -4 9 -8z m170 4 c0 -2 -8 -10 -17
-17 -16 -13 -17 -12 -4 4 13 16 21 21 21 13z m430 -11 c-5 -7 -9 -14 -7 -16 1
-2 0 -3 -2 -1 -11 7 -7 29 5 29 9 0 11 -4 4 -12z m124 3 c-3 -4 -9 -8 -15 -8
-5 0 -9 4 -9 8 0 5 7 9 15 9 8 0 12 -4 9 -9z m-644 -22 c-7 -7 -13 -7 -20 0
-6 6 -3 10 10 10 13 0 16 -4 10 -10z m324 6 c3 -5 -1 -9 -9 -9 -8 0 -15 4 -15
9 0 4 4 8 9 8 6 0 12 -4 15 -8z m121 -2 c3 -6 -1 -7 -9 -4 -18 7 -21 14 -7 14
6 0 13 -4 16 -10z m-90 -48 c-3 -3 -11 0 -18 7 -9 10 -8 11 6 5 10 -3 15 -9
12 -12z m120 0 c-3 -3 -11 0 -18 7 -9 10 -8 11 6 5 10 -3 15 -9 12 -12z m-595
4 c0 -2 -6 -9 -14 -15 -11 -9 -16 -9 -22 0 -4 7 -3 9 4 5 6 -3 13 -2 17 4 6
10 15 14 15 6z m90 -10 c0 -2 -8 -10 -17 -17 -16 -13 -17 -12 -4 4 13 16 21
21 21 13z m27 -11 c0 -8 -4 -12 -9 -9 -5 3 -6 10 -3 15 9 13 12 11 12 -6z
m-160 -20 c0 -8 -4 -12 -9 -9 -5 3 -6 10 -3 15 9 13 12 11 12 -6z m453 9 c0
-8 -19 -13 -24 -6 -3 5 1 9 9 9 8 0 15 -2 15 -3z m-520 -20 c0 -8 -19 -13 -24
-6 -3 5 1 9 9 9 8 0 15 -2 15 -3z m560 2 c0 -2 -8 -10 -17 -17 -16 -13 -17
-12 -4 4 13 16 21 21 21 13z m250 -2 c0 -8 -19 -13 -24 -6 -3 5 1 9 9 9 8 0
15 -2 15 -3z m-704 -43 c0 -17 -3 -28 -6 -26 -5 3 -6 38 -1 53 4 10 7 -3 7
-27z m884 17 c0 -4 -4 -8 -9 -8 -6 0 -12 4 -15 8 -3 5 1 9 9 9 8 0 15 -4 15
-9z m-846 -24 c3 -8 2 -12 -4 -9 -6 3 -10 10 -10 16 0 14 7 11 14 -7z m446 1
c-5 -7 -8 -14 -5 -17 3 -3 -3 -11 -12 -19 -16 -12 -17 -12 -7 1 6 8 10 22 9
31 -2 9 3 16 11 16 9 0 11 -4 4 -12z m277 -4 c0 -11 -5 -18 -9 -15 -4 3 -5 11
-1 19 7 21 12 19 10 -4z m-82 0 c3 -5 2 -12 -3 -15 -5 -3 -9 1 -9 9 0 17 3 19
12 6z m-271 -9 c3 -5 -1 -9 -9 -9 -8 0 -15 4 -15 9 0 4 4 8 9 8 6 0 12 -4 15
-8z m-190 -20 c2 -4 -5 -9 -17 -9 -17 -2 -19 0 -7 7 18 12 18 12 24 2z m386
-6 c-7 -7 -13 -7 -20 0 -6 6 -3 10 10 10 13 0 16 -4 10 -10z m237 -3 c0 -8 -4
-10 -12 -3 -7 5 -16 6 -20 2 -5 -4 -5 -2 -2 4 9 15 34 13 34 -3z m-327 -9 c0
-8 -19 -13 -24 -6 -3 5 1 9 9 9 8 0 15 -2 15 -3z m531 -7 c-6 -8 -7 -18 -3
-22 4 -5 1 -5 -6 -1 -10 6 -10 11 -1 22 6 8 14 14 16 14 3 0 0 -6 -6 -13z
m-1200 -14 c13 -16 12 -17 -3 -4 -10 7 -18 15 -18 17 0 8 8 3 21 -13z m63 -1
c3 -5 -1 -9 -9 -9 -8 0 -12 4 -9 9 3 4 7 8 9 8 2 0 6 -4 9 -8z m931 -1 c3 -5
2 -12 -3 -15 -5 -3 -9 1 -9 9 0 17 3 19 12 6z m-195 -15 c0 -2 -7 -7 -16 -10
-8 -3 -12 -2 -9 4 6 10 25 14 25 6z m275 -14 c-3 -3 -11 0 -18 7 -9 10 -8 11
6 5 10 -3 15 -9 12 -12z m-798 -7 c0 -8 -4 -12 -9 -9 -5 3 -6 10 -3 15 9 13
12 11 12 -6z m-223 -11 c3 -8 2 -12 -4 -9 -6 3 -10 10 -10 16 0 14 7 11 14 -7z
m780 8 c3 -5 -1 -9 -9 -9 -8 0 -12 4 -9 9 3 4 7 8 9 8 2 0 6 -4 9 -8z m181 -1
c-9 -8 -36 -10 -30 -2 2 4 11 8 20 8 8 0 13 -3 10 -6z m-740 -29 c-3 -3 -11 0
-18 7 -9 10 -8 11 6 5 10 -3 15 -9 12 -12z m600 9 c3 -5 2 -12 -3 -15 -5 -3
-9 1 -9 9 0 17 3 19 12 6z m199 0 c3 -5 -2 -15 -12 -22 -15 -12 -16 -12 -5 2
7 9 10 19 6 22 -3 4 -4 7 0 7 3 0 8 -4 11 -9z m-873 -18 c13 -16 12 -17 -3 -4
-10 7 -18 15 -18 17 0 8 8 3 21 -13z m636 -38 c0 -8 -4 -12 -9 -9 -5 3 -6 10
-3 15 9 13 12 11 12 -6z m-907 -5 c0 -5 -2 -10 -4 -10 -3 0 -8 5 -11 10 -3 6
-1 10 4 10 6 0 11 -4 11 -10z m146 -25 c-1 -8 -5 -17 -8 -21 -5 -4 -4 16 1 34
3 9 9 -1 7 -13z m34 -9 c0 -2 -8 -10 -17 -17 -16 -13 -17 -12 -4 4 13 16 21
21 21 13z m50 -2 c0 -8 -19 -13 -24 -6 -3 5 1 9 9 9 8 0 15 -2 15 -3z m11 -17
c-10 -9 -11 -8 -5 6 3 10 9 15 12 12 3 -3 0 -11 -7 -18z m123 7 c3 -8 2 -12
-4 -9 -6 3 -10 10 -10 16 0 14 7 11 14 -7z m-317 -29 c0 -8 -4 -15 -9 -15 -10
0 -11 14 -1 23 9 10 10 9 10 -8z m59 -10 c-1 -8 -5 -17 -8 -21 -5 -4 -4 16 1
34 3 9 9 -1 7 -13z m81 -2 c0 -8 -4 -10 -12 -3 -7 5 -16 6 -20 2 -5 -4 -5 -2
-2 4 9 15 34 13 34 -3z m83 2 c0 -2 -9 -3 -19 -2 -11 0 -18 5 -15 9 4 6 34 0
34 -7z m90 10 c0 -2 -6 -8 -13 -14 -10 -8 -14 -7 -14 2 0 8 6 14 14 14 7 0 13
-1 13 -2z m-70 -46 c0 -4 -11 -6 -24 -5 -13 0 -22 4 -20 8 6 9 44 6 44 -3z"/>
<path d="M6437 7040 c9 -9 9 -17 2 -26 -17 -21 7 -25 26 -4 10 11 15 21 12 21
-4 1 -10 2 -14 3 -5 1 -15 5 -23 10 -12 7 -13 6 -3 -4z m33 -14 c0 -2 -8 -10
-17 -17 -16 -13 -17 -12 -4 4 13 16 21 21 21 13z"/>
<path d="M7026 6701 c-14 -16 -15 -20 -2 -30 12 -10 14 -9 11 6 -1 10 2 24 8
31 15 19 2 14 -17 -7z"/>
<path d="M6165 6580 c-4 -6 -10 -8 -14 -6 -12 8 -6 -26 9 -54 17 -30 21 -50
10 -50 -4 0 -11 -8 -14 -17 -4 -10 -4 -14 0 -10 4 4 14 1 22 -6 10 -7 13 -8 9
-1 -4 7 -1 17 7 23 11 9 15 9 19 -1 3 -8 6 -8 6 -2 1 6 -6 17 -14 24 -18 15
-20 34 -2 24 8 -5 8 -3 -2 9 -7 9 -17 14 -22 11 -5 -3 -9 -1 -9 5 0 5 5 13 10
16 8 5 8 11 1 19 -6 7 -8 16 -4 19 3 4 4 7 0 7 -3 0 -9 -5 -12 -10z m10 -31
c-4 -5 -12 -9 -18 -8 -9 0 -8 2 1 6 6 2 9 10 6 15 -4 7 -2 8 5 4 6 -4 9 -12 6
-17z m19 -68 c3 -5 -2 -15 -12 -22 -15 -12 -16 -12 -5 2 7 9 10 19 6 22 -3 4
-4 7 0 7 3 0 8 -4 11 -9z"/>
<path d="M5971 6492 c-1 -8 -6 -10 -13 -6 -10 5 -10 4 -1 -6 15 -16 28 -8 20
12 -4 11 -6 11 -6 0z"/>
<path d="M5954 6449 c-3 -6 -2 -15 3 -20 5 -5 9 -1 9 11 0 23 -2 24 -12 9z"/>
<path d="M5981 6450 c-1 -21 16 -46 26 -37 4 5 3 11 -3 15 -6 4 -14 14 -17 22
-5 13 -5 13 -6 0z"/>
<path d="M5921 6428 c9 -7 15 -21 13 -30 -1 -10 3 -21 8 -25 6 -3 8 -1 5 4 -4
6 0 14 9 17 22 8 24 8 22 -6 -2 -6 6 -13 17 -15 18 -3 18 -2 2 5 -10 4 -19 12
-20 17 -1 6 -10 9 -20 8 -10 -2 -16 1 -12 7 3 5 -5 14 -17 20 -20 9 -21 9 -7
-2z"/>
<path d="M6192 6397 c10 -19 20 -16 24 6 1 7 -7 13 -16 13 -15 0 -16 -4 -8
-19z"/>
<path d="M6050 6369 c0 -5 5 -7 10 -4 6 3 10 8 10 11 0 2 -4 4 -10 4 -5 0 -10
-5 -10 -11z"/>
<path d="M5950 6360 c-13 -8 -12 -10 3 -10 9 0 17 5 17 10 0 12 -1 12 -20 0z"/>
<path d="M5979 6348 c-8 -25 -2 -51 13 -59 12 -6 18 -6 18 1 0 5 -6 10 -13 10
-7 0 -13 9 -13 20 0 15 5 19 21 14 16 -4 17 -3 5 5 -14 10 -29 14 -31 9z"/>
<path d="M5936 6332 c-3 -6 -1 -14 5 -17 15 -10 25 3 12 16 -7 7 -13 7 -17 1z"/>
<path d="M6243 6328 c-14 -24 -11 -38 10 -53 12 -9 21 -18 19 -20 -8 -13 6
-28 30 -30 20 -2 25 1 21 12 -3 8 -8 10 -12 5 -3 -5 -14 1 -24 13 -11 16 -13
26 -6 30 6 5 3 13 -10 22 -12 8 -19 19 -16 24 4 5 4 9 1 9 -3 0 -8 -6 -13 -12z
m12 -28 c-3 -4 0 -11 5 -13 6 -3 5 -4 -1 -3 -7 1 -13 10 -15 19 -1 9 2 15 7
11 5 -3 7 -9 4 -14z"/>
<path d="M6051 6274 c0 -11 3 -14 6 -6 3 7 2 16 -1 19 -3 4 -6 -2 -5 -13z"/>
<path d="M5976 6262 c-2 -4 2 -16 10 -27 8 -10 14 -14 14 -9 0 6 -6 16 -12 23
-11 10 -9 12 7 9 11 -1 25 -10 32 -18 7 -8 13 -11 13 -6 0 6 6 2 13 -7 8 -11
17 -14 26 -8 20 13 3 32 -24 27 -13 -3 -25 0 -27 6 -5 13 -45 21 -52 10z m104
-26 c0 -3 -4 -8 -10 -11 -5 -3 -10 -1 -10 4 0 6 5 11 10 11 6 0 10 -2 10 -4z"/>
<path d="M6099 6213 c-1 -5 -1 -12 0 -16 1 -4 -4 -7 -11 -6 -25 3 -38 -1 -38
-12 0 -6 5 -7 13 -2 6 4 17 8 22 8 6 0 11 4 12 9 1 5 7 13 15 17 10 7 10 9 1
9 -7 0 -14 -3 -14 -7z"/>
<path d="M6110 6169 c0 -5 -5 -7 -11 -3 -8 4 -8 0 0 -15 12 -22 31 -29 31 -10
0 5 -5 7 -11 3 -8 -4 -9 0 -4 15 3 11 4 21 1 21 -3 0 -6 -5 -6 -11z"/>
<path d="M6193 6098 c0 -23 2 -25 13 -13 16 15 19 29 5 21 -5 -4 -11 0 -14 6
-2 7 -4 1 -4 -14z"/>
<path d="M6144 6065 c-10 -8 -14 -15 -7 -15 6 0 15 5 19 11 4 8 9 7 15 -2 4
-7 11 -11 14 -8 3 4 -1 11 -8 17 -10 9 -18 8 -33 -3z"/>
<path d="M6155 6026 c21 -15 35 -12 35 7 0 8 -3 8 -9 -2 -6 -9 -11 -10 -15 -2
-4 6 -12 11 -19 11 -6 0 -2 -6 8 -14z"/>
<path d="M6145 6000 c3 -5 11 -10 16 -10 6 0 7 5 4 10 -3 6 -11 10 -16 10 -6
0 -7 -4 -4 -10z"/>
<path d="M6197 5993 c4 -10 2 -14 -5 -9 -6 4 -16 -3 -22 -16 -9 -20 -9 -21 2
-7 7 9 18 16 23 17 13 1 19 32 6 32 -6 0 -7 -7 -4 -17z"/>
<path d="M6230 5990 c0 -5 5 -10 11 -10 5 0 7 5 4 10 -3 6 -8 10 -11 10 -2 0
-4 -4 -4 -10z"/>
<path d="M6199 5953 c-13 -17 -13 -17 6 -3 11 8 22 16 24 17 2 2 0 3 -6 3 -6
0 -17 -8 -24 -17z"/>
<path d="M7009 6618 c-7 -14 -3 -21 18 -33 16 -9 20 -14 11 -11 -10 3 -20 1
-23 -4 -3 -5 -12 -7 -20 -3 -8 3 -15 1 -15 -5 0 -13 49 -22 56 -10 3 4 9 6 12
4 4 -2 8 14 8 38 0 34 -4 42 -19 42 -10 0 -23 -8 -28 -18z m30 -4 c4 3 8 -1 8
-9 0 -10 -4 -12 -12 -5 -7 5 -15 7 -19 3 -4 -4 -4 1 0 12 5 11 9 14 12 7 2 -7
7 -10 11 -8z"/>
<path d="M7003 6498 c-12 -21 -14 -48 -2 -45 6 1 14 -5 16 -13 4 -13 3 -13 -6
0 -6 8 -11 11 -11 6 0 -5 -9 -1 -20 9 -11 10 -20 13 -20 7 0 -6 5 -14 10 -17
6 -4 8 -10 5 -15 -8 -13 14 -52 26 -45 5 4 9 1 9 -4 0 -6 -5 -11 -12 -11 -6 0
-8 -3 -5 -7 4 -3 2 -12 -4 -19 -6 -8 -6 -14 0 -18 5 -4 12 -2 16 4 3 5 4 10 0
10 -3 0 1 13 10 29 10 20 11 32 4 36 -6 4 -6 11 -1 18 12 16 11 47 -1 47 -5 0
-7 9 -4 20 6 23 2 26 -10 8z m7 -72 c0 -2 -7 -7 -16 -10 -8 -3 -12 -2 -9 4 6
10 25 14 25 6z m4 -24 c3 -5 -1 -9 -9 -9 -8 0 -12 4 -9 9 3 4 7 8 9 8 2 0 6
-4 9 -8z"/>
<path d="M6930 6355 c11 -13 10 -18 -4 -33 -18 -21 -22 -37 -6 -27 6 3 13 -1
16 -10 5 -13 9 -14 15 -4 4 7 3 21 -2 30 -7 13 -5 20 6 27 13 7 11 11 -11 21
-25 11 -26 10 -14 -4z"/>
<path d="M6830 6245 c7 -9 15 -13 17 -11 7 7 -7 26 -19 26 -6 0 -6 -6 2 -15z"/>
<path d="M6905 6249 c-4 -6 -5 -12 -2 -15 2 -3 7 2 10 11 7 17 1 20 -8 4z"/>
<path d="M6876 6208 c3 -5 10 -6 15 -3 13 9 11 12 -6 12 -8 0 -12 -4 -9 -9z"/>
<path d="M7295 6510 c3 -5 -1 -10 -9 -10 -9 0 -16 -5 -16 -10 0 -7 7 -7 20 0
17 9 20 30 4 30 -3 0 -2 -4 1 -10z"/>
<path d="M7213 6488 c5 -17 30 -17 33 0 1 7 0 8 -3 2 -2 -5 -9 -10 -14 -10 -6
0 -7 5 -4 10 3 6 1 10 -5 10 -7 0 -10 -6 -7 -12z"/>
<path d="M7230 6456 c0 -2 8 -10 18 -17 15 -13 16 -12 3 4 -13 16 -21 21 -21
13z"/>
<path d="M6133 6405 c0 -8 7 -17 15 -20 21 -8 22 -3 2 17 -13 14 -17 15 -17 3z"/>
<path d="M6117 6364 c-3 -4 0 -15 6 -25 10 -16 9 -21 -3 -29 -9 -6 -10 -10 -3
-10 7 0 17 9 23 20 8 14 8 20 0 20 -6 0 -9 4 -5 9 6 11 -9 23 -18 15z"/>
<path d="M6130 6290 c-9 -6 -10 -10 -3 -10 6 0 15 5 18 10 8 12 4 12 -15 0z"/>
<path d="M6216 6211 c-3 -4 -17 -7 -31 -6 -14 2 -23 -1 -20 -5 3 -5 12 -7 20
-3 11 3 13 1 9 -10 -3 -8 0 -18 7 -23 9 -5 10 -2 6 9 -3 8 1 21 9 27 12 10 13
7 10 -20 -2 -22 0 -28 7 -21 7 7 15 7 26 -2 12 -9 13 -9 7 1 -4 6 -2 12 3 12
6 0 11 -5 11 -12 0 -6 3 -8 7 -5 7 8 -24 44 -49 58 -9 5 -19 5 -22 0z m44 -31
c0 -5 -7 -7 -15 -4 -8 4 -12 10 -9 15 6 11 24 2 24 -11z"/>
<path d="M7026 6314 c-5 -14 -4 -15 9 -4 17 14 19 20 6 20 -5 0 -12 -7 -15
-16z"/>
<path d="M7057 7675 c-4 -8 -3 -16 1 -19 4 -3 9 4 9 15 2 23 -3 25 -10 4z"/>
<path d="M7215 7671 c-3 -5 -2 -12 3 -15 5 -3 9 1 9 9 0 17 -3 19 -12 6z"/>
<path d="M6174 7656 c1 -8 5 -18 8 -22 4 -3 5 1 4 10 -1 8 -5 18 -8 22 -4 3
-5 -1 -4 -10z"/>
<path d="M6955 7659 c-3 -4 2 -6 10 -5 21 3 28 13 10 13 -9 0 -18 -4 -20 -8z"/>
<path d="M7016 7662 c-3 -5 1 -9 9 -9 8 0 12 4 9 9 -3 4 -7 8 -9 8 -2 0 -6 -4
-9 -8z"/>
<path d="M7150 7661 c0 -6 4 -13 10 -16 6 -3 7 1 4 9 -7 18 -14 21 -14 7z"/>
<path d="M6055 7631 c-3 -5 -2 -12 3 -15 5 -3 9 1 9 9 0 17 -3 19 -12 6z"/>
<path d="M6335 7620 c-3 -5 -1 -10 4 -10 6 0 11 5 11 10 0 6 -2 10 -4 10 -3 0
-8 -4 -11 -10z"/>
<path d="M6850 7619 c0 -5 5 -7 10 -4 6 3 10 8 10 11 0 2 -4 4 -10 4 -5 0 -10
-5 -10 -11z"/>
<path d="M6896 7622 c-3 -4 4 -9 15 -9 23 -2 25 3 4 10 -8 4 -16 3 -19 -1z"/>
<path d="M7075 7620 c3 -5 8 -10 11 -10 2 0 4 5 4 10 0 6 -5 10 -11 10 -5 0
-7 -4 -4 -10z"/>
<path d="M7173 7609 c-2 -23 3 -25 10 -4 4 8 3 16 -1 19 -4 3 -9 -4 -9 -15z"/>
<path d="M7333 7609 c-2 -23 3 -25 10 -4 4 8 3 16 -1 19 -4 3 -9 -4 -9 -15z"/>
<path d="M5990 7606 c0 -2 7 -7 16 -10 8 -3 12 -2 9 4 -6 10 -25 14 -25 6z"/>
<path d="M6115 7579 c-3 -4 2 -6 10 -5 21 3 28 13 10 13 -9 0 -18 -4 -20 -8z"/>
<path d="M6215 7580 c3 -5 8 -10 11 -10 2 0 4 5 4 10 0 6 -5 10 -11 10 -5 0
-7 -4 -4 -10z"/>
<path d="M6255 7580 c-3 -5 -1 -10 4 -10 6 0 11 5 11 10 0 6 -2 10 -4 10 -3 0
-8 -4 -11 -10z"/>
<path d="M5715 7560 c3 -5 8 -10 11 -10 2 0 4 5 4 10 0 6 -5 10 -11 10 -5 0
-7 -4 -4 -10z"/>
<path d="M6070 7566 c0 -2 7 -7 16 -10 8 -3 12 -2 9 4 -6 10 -25 14 -25 6z"/>
<path d="M7053 7551 c0 -11 5 -18 9 -15 4 3 5 11 1 19 -7 21 -12 19 -10 -4z"/>
<path d="M7094 7556 c1 -8 5 -18 8 -22 4 -3 5 1 4 10 -1 8 -5 18 -8 22 -4 3
-5 -1 -4 -10z"/>
<path d="M7253 7551 c0 -11 5 -18 9 -15 4 3 5 11 1 19 -7 21 -12 19 -10 -4z"/>
<path d="M7327 7559 c7 -7 15 -10 18 -7 3 3 -2 9 -12 12 -14 6 -15 5 -6 -5z"/>
<path d="M5876 7547 c3 -10 9 -15 12 -12 3 3 0 11 -7 18 -10 9 -11 8 -5 -6z"/>
<path d="M5975 7541 c-3 -5 -2 -12 3 -15 5 -3 9 1 9 9 0 17 -3 19 -12 6z"/>
<path d="M6130 7540 c0 -5 5 -10 11 -10 5 0 7 5 4 10 -3 6 -8 10 -11 10 -2 0
-4 -4 -4 -10z"/>
<path d="M7130 7539 c0 -5 5 -7 10 -4 6 3 10 8 10 11 0 2 -4 4 -10 4 -5 0 -10
-5 -10 -11z"/>
<path d="M5590 7521 c0 -6 4 -12 8 -15 5 -3 9 1 9 9 0 8 -4 15 -9 15 -4 0 -8
-4 -8 -9z"/>
<path d="M6990 7521 c0 -6 4 -13 10 -16 6 -3 7 1 4 9 -7 18 -14 21 -14 7z"/>
<path d="M5994 7502 c4 -3 14 -7 22 -8 9 -1 13 0 10 4 -4 3 -14 7 -22 8 -9 1
-13 0 -10 -4z"/>
<path d="M7219 7508 c-5 -18 -6 -38 -1 -34 7 8 12 36 6 36 -2 0 -4 -1 -5 -2z"/>
<path d="M6189 7483 c-13 -16 -12 -17 4 -4 9 7 17 15 17 17 0 8 -8 3 -21 -13z"/>
<path d="M5813 7471 c0 -11 5 -18 9 -15 4 3 5 11 1 19 -7 21 -12 19 -10 -4z"/>
<path d="M6075 7480 c-3 -5 -1 -10 4 -10 6 0 11 5 11 10 0 6 -2 10 -4 10 -3 0
-8 -4 -11 -10z"/>
<path d="M6110 7480 c0 -5 5 -10 11 -10 5 0 7 5 4 10 -3 6 -8 10 -11 10 -2 0
-4 -4 -4 -10z"/>
<path d="M6146 7478 c3 -5 10 -6 15 -3 13 9 11 12 -6 12 -8 0 -12 -4 -9 -9z"/>
<path d="M6993 7475 c0 -8 4 -12 9 -9 5 3 6 10 3 15 -9 13 -12 11 -12 -6z"/>
<path d="M7075 7480 c-3 -5 -1 -10 4 -10 6 0 11 5 11 10 0 6 -2 10 -4 10 -3 0
-8 -4 -11 -10z"/>
<path d="M5853 7455 c0 -8 4 -12 9 -9 5 3 6 10 3 15 -9 13 -12 11 -12 -6z"/>
<path d="M5975 7460 c-3 -5 -1 -10 4 -10 6 0 11 5 11 10 0 6 -2 10 -4 10 -3 0
-8 -4 -11 -10z"/>
<path d="M7175 7460 c3 -5 8 -10 11 -10 2 0 4 5 4 10 0 6 -5 10 -11 10 -5 0
-7 -4 -4 -10z"/>
<path d="M7286 7462 c-3 -5 1 -9 9 -9 8 0 12 4 9 9 -3 4 -7 8 -9 8 -2 0 -6 -4
-9 -8z"/>
<path d="M7336 7462 c-3 -5 1 -9 9 -9 8 0 12 4 9 9 -3 4 -7 8 -9 8 -2 0 -6 -4
-9 -8z"/>
<path d="M7525 7460 c-3 -6 1 -7 9 -4 18 7 21 14 7 14 -6 0 -13 -4 -16 -10z"/>
<path d="M7006 7439 c4 -8 30 -6 38 2 3 3 -5 5 -19 5 -13 0 -22 -3 -19 -7z"/>
<path d="M7650 7440 c0 -5 5 -10 11 -10 5 0 7 5 4 10 -3 6 -8 10 -11 10 -2 0
-4 -4 -4 -10z"/>
<path d="M5710 7421 c0 -6 4 -13 10 -16 6 -3 7 1 4 9 -7 18 -14 21 -14 7z"/>
<path d="M7135 7420 c-3 -5 -1 -10 4 -10 6 0 11 5 11 10 0 6 -2 10 -4 10 -3 0
-8 -4 -11 -10z"/>
<path d="M7170 7419 c0 -5 5 -7 10 -4 6 3 10 8 10 11 0 2 -4 4 -10 4 -5 0 -10
-5 -10 -11z"/>
<path d="M7035 7410 c-4 -6 -10 -8 -14 -6 -4 3 -8 -1 -8 -9 0 -10 4 -12 12 -5
7 5 14 8 17 5 2 -3 5 2 5 10 0 18 -3 19 -12 5z"/>
<path d="M7226 7398 c3 -5 10 -6 15 -3 13 9 11 12 -6 12 -8 0 -12 -4 -9 -9z"/>
<path d="M7694 7402 c4 -3 14 -7 22 -8 9 -1 13 0 10 4 -4 3 -14 7 -22 8 -9 1
-13 0 -10 -4z"/>
<path d="M7556 7387 c3 -10 9 -15 12 -12 3 3 0 11 -7 18 -10 9 -11 8 -5 -6z"/>
<path d="M5853 7375 c0 -8 4 -12 9 -9 5 3 6 10 3 15 -9 13 -12 11 -12 -6z"/>
<path d="M5886 7378 c3 -5 10 -6 15 -3 13 9 11 12 -6 12 -8 0 -12 -4 -9 -9z"/>
<path d="M7336 7382 c-2 -4 -1 -14 4 -22 7 -11 9 -9 7 8 -1 24 -3 26 -11 14z"/>
<path d="M7375 7381 c-3 -5 -2 -12 3 -15 5 -3 9 1 9 9 0 17 -3 19 -12 6z"/>
<path d="M5660 7360 c-9 -6 -10 -10 -3 -10 6 0 15 5 18 10 8 12 4 12 -15 0z"/>
<path d="M5730 7359 c0 -5 5 -7 10 -4 6 3 10 8 10 11 0 2 -4 4 -10 4 -5 0 -10
-5 -10 -11z"/>
<path d="M5779 7368 c-5 -18 -6 -38 -1 -34 7 8 12 36 6 36 -2 0 -4 -1 -5 -2z"/>
<path d="M7050 7361 c0 -6 4 -13 10 -16 6 -3 7 1 4 9 -7 18 -14 21 -14 7z"/>
<path d="M7449 7357 c6 -8 7 -18 3 -22 -4 -5 -1 -5 6 -1 10 6 10 11 1 22 -6 8
-14 14 -16 14 -3 0 0 -6 6 -13z"/>
<path d="M5806 7342 c-3 -5 1 -9 9 -9 8 0 12 4 9 9 -3 4 -7 8 -9 8 -2 0 -6 -4
-9 -8z"/>
<path d="M5855 7340 c-3 -5 -1 -10 4 -10 6 0 11 5 11 10 0 6 -2 10 -4 10 -3 0
-8 -4 -11 -10z"/>
<path d="M7360 7340 c-12 -7 -10 -9 7 -7 12 0 19 5 17 9 -6 10 -6 10 -24 -2z"/>
<path d="M7536 7338 c3 -5 10 -6 15 -3 13 9 11 12 -6 12 -8 0 -12 -4 -9 -9z"/>
<path d="M6133 7315 c0 -8 4 -12 9 -9 4 3 8 9 8 15 0 5 -4 9 -8 9 -5 0 -9 -7
-9 -15z"/>
<path d="M6160 7326 c0 -2 8 -10 18 -17 15 -13 16 -12 3 4 -13 16 -21 21 -21
13z"/>
<path d="M7706 7322 c-3 -5 1 -9 9 -9 8 0 12 4 9 9 -3 4 -7 8 -9 8 -2 0 -6 -4
-9 -8z"/>
<path d="M7114 7295 c0 -13 3 -22 7 -19 8 4 6 30 -2 38 -3 3 -5 -5 -5 -19z"/>
<path d="M6075 7300 c-3 -5 -1 -10 4 -10 6 0 11 5 11 10 0 6 -2 10 -4 10 -3 0
-8 -4 -11 -10z"/>
<path d="M7453 7295 c0 -8 4 -12 9 -9 5 3 6 10 3 15 -9 13 -12 11 -12 -6z"/>
<path d="M7006 7281 c-14 -15 -15 -21 -4 -27 7 -4 10 -3 5 1 -4 5 0 17 10 27
9 10 14 18 11 18 -3 0 -13 -9 -22 -19z"/>
<path d="M5796 7282 c-3 -5 1 -9 9 -9 8 0 12 4 9 9 -3 4 -7 8 -9 8 -2 0 -6 -4
-9 -8z"/>
<path d="M5976 7273 c-6 -14 -5 -15 5 -6 7 7 10 15 7 18 -3 3 -9 -2 -12 -12z"/>
<path d="M6176 7273 c-6 -14 -5 -15 5 -6 7 7 10 15 7 18 -3 3 -9 -2 -12 -12z"/>
<path d="M7036 7273 c-6 -14 -5 -15 5 -6 7 7 10 15 7 18 -3 3 -9 -2 -12 -12z"/>
<path d="M6039 7275 c-1 -3 -2 -13 -3 -22 -1 -10 -5 -25 -10 -33 -7 -12 -6
-13 5 -2 11 11 22 62 12 62 -1 0 -4 -2 -4 -5z"/>
<path d="M6073 7267 c0 -8 6 -14 14 -14 9 0 10 4 2 14 -6 7 -12 13 -14 13 -1
0 -2 -6 -2 -13z"/>
<path d="M5699 7268 c-5 -18 -6 -38 -1 -34 7 8 12 36 6 36 -2 0 -4 -1 -5 -2z"/>
<path d="M7413 7255 c0 -8 4 -12 9 -9 5 3 6 10 3 15 -9 13 -12 11 -12 -6z"/>
<path d="M6124 7238 c-12 -14 -13 -18 -3 -10 9 6 18 10 21 7 2 -3 5 2 5 10 0
19 0 19 -23 -7z"/>
<path d="M5975 7240 c-3 -5 -1 -10 4 -10 6 0 11 5 11 10 0 6 -2 10 -4 10 -3 0
-8 -4 -11 -10z"/>
<path d="M7160 7246 c0 -2 8 -10 18 -17 15 -13 16 -12 3 4 -13 16 -21 21 -21
13z"/>
<path d="M5615 7219 c-3 -4 2 -6 10 -5 21 3 28 13 10 13 -9 0 -18 -4 -20 -8z"/>
<path d="M6209 7228 c-5 -19 -8 -50 -4 -46 7 7 15 48 9 48 -2 0 -4 -1 -5 -2z"/>
<path d="M7040 7220 c-9 -6 -10 -10 -3 -10 6 0 15 5 18 10 8 12 4 12 -15 0z"/>
<path d="M7230 7218 c0 -4 4 -8 9 -8 6 0 12 4 15 8 3 5 -1 9 -9 9 -8 0 -15 -4
-15 -9z"/>
<path d="M7415 7220 c3 -5 8 -10 11 -10 2 0 4 5 4 10 0 6 -5 10 -11 10 -5 0
-7 -4 -4 -10z"/>
<path d="M7455 7220 c-3 -5 -1 -10 4 -10 6 0 11 5 11 10 0 6 -2 10 -4 10 -3 0
-8 -4 -11 -10z"/>
<path d="M7595 7220 c3 -5 8 -10 11 -10 2 0 4 5 4 10 0 6 -5 10 -11 10 -5 0
-7 -4 -4 -10z"/>
<path d="M5713 7205 c0 -8 4 -12 9 -9 5 3 6 10 3 15 -9 13 -12 11 -12 -6z"/>
<path d="M6135 7210 c-4 -6 -12 -7 -18 -4 -7 4 -9 4 -5 -1 4 -4 2 -15 -4 -24
-10 -12 -7 -12 8 2 11 9 23 15 26 12 2 -3 5 2 5 10 0 18 -3 19 -12 5z"/>
<path d="M5896 7202 c-3 -5 1 -9 9 -9 8 0 12 4 9 9 -3 4 -7 8 -9 8 -2 0 -6 -4
-9 -8z"/>
<path d="M7073 7195 c0 -8 4 -12 9 -9 4 3 8 9 8 15 0 5 -4 9 -8 9 -5 0 -9 -7
-9 -15z"/>
<path d="M7191 7187 c-13 -21 -12 -21 5 -5 10 10 16 20 13 22 -3 3 -11 -5 -18
-17z"/>
<path d="M6075 7190 c-3 -5 -3 -10 1 -10 4 0 -1 -10 -12 -22 -19 -23 -19 -23
2 -5 11 9 21 24 21 32 0 18 -3 19 -12 5z"/>
<path d="M5516 7173 c-6 -14 -5 -15 5 -6 7 7 10 15 7 18 -3 3 -9 -2 -12 -12z"/>
<path d="M5634 7182 c4 -3 14 -7 22 -8 9 -1 13 0 10 4 -4 3 -14 7 -22 8 -9 1
-13 0 -10 -4z"/>
<path d="M5919 7173 c-13 -16 -12 -17 4 -4 9 7 17 15 17 17 0 8 -8 3 -21 -13z"/>
<path d="M7450 7180 c0 -5 5 -10 11 -10 5 0 7 5 4 10 -3 6 -8 10 -11 10 -2 0
-4 -4 -4 -10z"/>
<path d="M5954 7146 c0 -20 5 -33 13 -33 8 0 9 5 4 11 -5 6 -7 19 -6 28 2 10
0 20 -4 22 -4 3 -7 -10 -7 -28z"/>
<path d="M6140 7169 c0 -5 -4 -7 -10 -4 -14 9 -12 -1 3 -13 10 -8 13 -6 14 9
1 10 0 19 -3 19 -2 0 -4 -5 -4 -11z"/>
<path d="M7133 7167 c0 -8 6 -14 14 -14 9 0 10 4 2 14 -6 7 -12 13 -14 13 -1
0 -2 -6 -2 -13z"/>
<path d="M5573 7151 c0 -11 5 -18 9 -15 4 3 5 11 1 19 -7 21 -12 19 -10 -4z"/>
<path d="M5770 7140 c0 -5 5 -10 11 -10 5 0 7 5 4 10 -3 6 -8 10 -11 10 -2 0
-4 -4 -4 -10z"/>
<path d="M5984 7142 c4 -3 14 -7 22 -8 9 -1 13 0 10 4 -4 3 -14 7 -22 8 -9 1
-13 0 -10 -4z"/>
<path d="M6190 7140 c0 -5 7 -7 15 -4 8 4 15 8 15 10 0 2 -7 4 -15 4 -8 0 -15
-4 -15 -10z"/>
<path d="M7455 7140 c3 -5 8 -10 11 -10 2 0 4 5 4 10 0 6 -5 10 -11 10 -5 0
-7 -4 -4 -10z"/>
<path d="M7495 7140 c3 -5 8 -10 11 -10 2 0 4 5 4 10 0 6 -5 10 -11 10 -5 0
-7 -4 -4 -10z"/>
<path d="M7555 7139 c-3 -4 2 -6 10 -5 21 3 28 13 10 13 -9 0 -18 -4 -20 -8z"/>
<path d="M7616 7142 c-3 -5 1 -9 9 -9 8 0 12 4 9 9 -3 4 -7 8 -9 8 -2 0 -6 -4
-9 -8z"/>
<path d="M5856 7113 c-6 -14 -5 -15 5 -6 7 7 10 15 7 18 -3 3 -9 -2 -12 -12z"/>
<path d="M6250 7126 c0 -2 7 -7 16 -10 8 -3 12 -2 9 4 -6 10 -25 14 -25 6z"/>
<path d="M7244 7122 c4 -3 14 -7 22 -8 9 -1 13 0 10 4 -4 3 -14 7 -22 8 -9 1
-13 0 -10 -4z"/>
<path d="M6296 7109 c2 -4 13 -7 24 -6 23 2 17 10 -10 12 -10 1 -17 -2 -14 -6z"/>
<path d="M5579 7108 c-5 -18 -6 -38 -1 -34 7 8 12 36 6 36 -2 0 -4 -1 -5 -2z"/>
<path d="M5606 7098 c3 -5 10 -6 15 -3 13 9 11 12 -6 12 -8 0 -12 -4 -9 -9z"/>
<path d="M7607 7099 c7 -7 15 -10 18 -7 3 3 -2 9 -12 12 -14 6 -15 5 -6 -5z"/>
<path d="M7670 7099 c0 -5 5 -7 10 -4 6 3 10 8 10 11 0 2 -4 4 -10 4 -5 0 -10
-5 -10 -11z"/>
<path d="M5826 7082 c-3 -5 1 -9 9 -9 8 0 12 4 9 9 -3 4 -7 8 -9 8 -2 0 -6 -4
-9 -8z"/>
<path d="M5866 7078 c3 -4 9 -8 15 -8 5 0 9 4 9 8 0 5 -7 9 -15 9 -8 0 -12 -4
-9 -9z"/>
<path d="M6876 7078 c5 -8 1 -9 -12 -5 -18 7 -18 6 -1 -7 24 -19 21 -29 -4
-15 -16 8 -24 8 -33 -1 -8 -8 -7 -10 6 -5 13 5 16 1 14 -20 l-3 -26 22 21 c22
21 31 70 13 70 -5 0 -6 -5 -2 -12z"/>
<path d="M5615 7071 c-3 -5 -2 -12 3 -15 5 -3 9 1 9 9 0 17 -3 19 -12 6z"/>
<path d="M7256 7053 c-6 -14 -5 -15 5 -6 7 7 10 15 7 18 -3 3 -9 -2 -12 -12z"/>
<path d="M7427 7059 c7 -7 15 -10 18 -7 3 3 -2 9 -12 12 -14 6 -15 5 -6 -5z"/>
<path d="M5714 7049 c-3 -6 -2 -15 3 -20 5 -5 9 -1 9 11 0 23 -2 24 -12 9z"/>
<path d="M7354 7035 c0 -13 3 -22 7 -19 8 4 6 30 -2 38 -3 3 -5 -5 -5 -19z"/>
<path d="M7473 7047 c0 -8 6 -14 14 -14 9 0 10 4 2 14 -6 7 -12 13 -14 13 -1
0 -2 -6 -2 -13z"/>
<path d="M5555 7041 c-3 -5 -2 -12 3 -15 5 -3 9 1 9 9 0 17 -3 19 -12 6z"/>
<path d="M5874 7029 c-19 -22 -19 -22 4 -8 12 8 22 17 22 21 0 12 -6 9 -26
-13z"/>
<path d="M7285 7040 c-3 -6 1 -7 9 -4 18 7 21 14 7 14 -6 0 -13 -4 -16 -10z"/>
<path d="M7626 7038 c3 -4 9 -8 15 -8 5 0 9 4 9 8 0 5 -7 9 -15 9 -8 0 -12 -4
-9 -9z"/>
<path d="M7695 7040 c3 -5 8 -10 11 -10 2 0 4 5 4 10 0 6 -5 10 -11 10 -5 0
-7 -4 -4 -10z"/>
<path d="M8636 7027 c3 -10 9 -15 12 -12 3 3 0 11 -7 18 -10 9 -11 8 -5 -6z"/>
<path d="M7306 7022 c-3 -5 1 -9 9 -9 8 0 15 4 15 9 0 4 -4 8 -9 8 -6 0 -12
-4 -15 -8z"/>
<path d="M7530 7020 c0 -5 5 -10 11 -10 5 0 7 5 4 10 -3 6 -8 10 -11 10 -2 0
-4 -4 -4 -10z"/>
<path d="M7575 7020 c-3 -5 -1 -10 4 -10 6 0 11 5 11 10 0 6 -2 10 -4 10 -3 0
-8 -4 -11 -10z"/>
<path d="M7796 7013 c-6 -14 -5 -15 5 -6 7 7 10 15 7 18 -3 3 -9 -2 -12 -12z"/>
<path d="M5539 7008 c-5 -18 -6 -38 -1 -34 7 8 12 36 6 36 -2 0 -4 -1 -5 -2z"/>
<path d="M5577 6995 c-4 -8 -3 -16 1 -19 4 -3 9 4 9 15 2 23 -3 25 -10 4z"/>
<path d="M7396 6998 c3 -5 10 -6 15 -3 13 9 11 12 -6 12 -8 0 -12 -4 -9 -9z"/>
<path d="M7675 6990 c-4 -6 -11 -7 -17 -4 -7 4 -8 2 -4 -5 6 -9 11 -9 22 0 14
11 18 19 10 19 -3 0 -8 -5 -11 -10z"/>
<path d="M5870 6975 c5 -7 6 -16 2 -21 -4 -5 -3 -5 2 -1 15 12 15 34 0 34 -9
0 -11 -4 -4 -12z"/>
<path d="M7293 6965 c0 -8 4 -15 9 -15 4 0 8 4 8 9 0 6 -4 12 -8 15 -5 3 -9
-1 -9 -9z"/>
<path d="M7373 6965 c0 -8 3 -13 5 -10 3 3 12 -1 21 -7 10 -8 9 -4 -3 10 -23
26 -23 26 -23 7z"/>
<path d="M8475 6969 c-4 -6 -5 -12 -2 -15 2 -3 7 2 10 11 7 17 1 20 -8 4z"/>
<path d="M8707 6959 c7 -7 15 -10 18 -7 3 3 -2 9 -12 12 -14 6 -15 5 -6 -5z"/>
<path d="M7429 6943 c-13 -16 -12 -17 4 -4 9 7 17 15 17 17 0 8 -8 3 -21 -13z"/>
<path d="M5830 6946 c0 -2 7 -7 16 -10 8 -3 12 -2 9 4 -6 10 -25 14 -25 6z"/>
<path d="M7320 6940 c-9 -6 -10 -10 -3 -10 6 0 15 5 18 10 8 12 4 12 -15 0z"/>
<path d="M7353 6930 c-1 -11 2 -20 7 -20 4 0 7 7 6 15 -3 23 -12 26 -13 5z"/>
<path d="M7699 6948 c-5 -18 -6 -38 -1 -34 7 8 12 36 6 36 -2 0 -4 -1 -5 -2z"/>
<path d="M5315 6921 c-3 -5 -2 -12 3 -15 5 -3 9 1 9 9 0 17 -3 19 -12 6z"/>
<path d="M5770 6921 c0 -6 4 -12 8 -15 5 -3 9 1 9 9 0 8 -4 15 -9 15 -4 0 -8
-4 -8 -9z"/>
<path d="M7435 6919 c-3 -4 2 -6 10 -5 21 3 28 13 10 13 -9 0 -18 -4 -20 -8z"/>
<path d="M7596 6913 c-6 -14 -5 -15 5 -6 7 7 10 15 7 18 -3 3 -9 -2 -12 -12z"/>
<path d="M7636 6918 c3 -5 10 -6 15 -3 13 9 11 12 -6 12 -8 0 -12 -4 -9 -9z"/>
<path d="M5396 6907 c3 -10 9 -15 12 -12 3 3 0 11 -7 18 -10 9 -11 8 -5 -6z"/>
<path d="M7389 6903 c-13 -16 -12 -17 4 -4 9 7 17 15 17 17 0 8 -8 3 -21 -13z"/>
<path d="M5493 6895 c0 -8 4 -12 9 -9 5 3 6 10 3 15 -9 13 -12 11 -12 -6z"/>
<path d="M5867 6889 c4 -13 8 -18 11 -10 2 7 -1 18 -6 23 -8 8 -9 4 -5 -13z"/>
<path d="M7736 6898 c3 -4 11 -5 19 -1 21 7 19 12 -4 10 -11 0 -18 -5 -15 -9z"/>
<path d="M5775 6881 c-3 -5 -2 -12 3 -15 5 -3 9 1 9 9 0 17 -3 19 -12 6z"/>
<path d="M7410 6880 c0 -5 5 -10 10 -10 6 0 10 5 10 10 0 6 -4 10 -10 10 -5 0
-10 -4 -10 -10z"/>
<path d="M7586 6878 c3 -5 10 -6 15 -3 13 9 11 12 -6 12 -8 0 -12 -4 -9 -9z"/>
<path d="M5406 6858 c3 -5 10 -6 15 -3 13 9 11 12 -6 12 -8 0 -12 -4 -9 -9z"/>
<path d="M5470 6860 c0 -5 5 -10 11 -10 5 0 7 5 4 10 -3 6 -8 10 -11 10 -2 0
-4 -4 -4 -10z"/>
<path d="M7391 6853 c7 -12 15 -20 18 -17 3 2 -3 12 -13 22 -17 16 -18 16 -5
-5z"/>
<path d="M7615 6860 c-3 -5 -1 -10 4 -10 6 0 11 5 11 10 0 6 -2 10 -4 10 -3 0
-8 -4 -11 -10z"/>
<path d="M7655 6860 c3 -5 8 -10 11 -10 2 0 4 5 4 10 0 6 -5 10 -11 10 -5 0
-7 -4 -4 -10z"/>
<path d="M5667 6839 c7 -7 15 -10 18 -7 3 3 -2 9 -12 12 -14 6 -15 5 -6 -5z"/>
<path d="M5756 6838 c3 -5 10 -6 15 -3 13 9 11 12 -6 12 -8 0 -12 -4 -9 -9z"/>
<path d="M5794 6832 c-10 -15 -8 -18 7 -19 10 -1 21 2 24 8 3 5 -1 6 -10 3
-11 -5 -14 -2 -9 10 8 21 2 20 -12 -2z"/>
<path d="M7496 6842 c-3 -5 1 -9 9 -9 8 0 12 4 9 9 -3 4 -7 8 -9 8 -2 0 -6 -4
-9 -8z"/>
<path d="M8310 6846 c0 -2 7 -7 16 -10 8 -3 12 -2 9 4 -6 10 -25 14 -25 6z"/>
<path d="M8386 6842 c-3 -5 1 -9 9 -9 8 0 12 4 9 9 -3 4 -7 8 -9 8 -2 0 -6 -4
-9 -8z"/>
<path d="M5720 6820 c-9 -6 -10 -10 -3 -10 6 0 15 5 18 10 8 12 4 12 -15 0z"/>
<path d="M7615 6820 c-3 -5 -1 -10 4 -10 6 0 11 5 11 10 0 6 -2 10 -4 10 -3 0
-8 -4 -11 -10z"/>
<path d="M7655 6820 c-3 -5 -1 -10 4 -10 6 0 11 5 11 10 0 6 -2 10 -4 10 -3 0
-8 -4 -11 -10z"/>
<path d="M5230 6801 c0 -6 4 -13 10 -16 6 -3 7 1 4 9 -7 18 -14 21 -14 7z"/>
<path d="M5395 6780 c-3 -5 -1 -10 4 -10 6 0 11 5 11 10 0 6 -2 10 -4 10 -3 0
-8 -4 -11 -10z"/>
<path d="M5495 6780 c3 -5 8 -10 11 -10 2 0 4 5 4 10 0 6 -5 10 -11 10 -5 0
-7 -4 -4 -10z"/>
<path d="M7690 6780 c0 -5 5 -10 11 -10 5 0 7 5 4 10 -3 6 -8 10 -11 10 -2 0
-4 -4 -4 -10z"/>
<path d="M7456 6767 c3 -10 9 -15 12 -12 3 3 0 11 -7 18 -10 9 -11 8 -5 -6z"/>
<path d="M7913 6765 c0 -8 4 -12 9 -9 5 3 6 10 3 15 -9 13 -12 11 -12 -6z"/>
<path d="M8309 6763 c-13 -16 -12 -17 4 -4 9 7 17 15 17 17 0 8 -8 3 -21 -13z"/>
<path d="M5680 6760 c-9 -6 -10 -10 -3 -10 6 0 15 5 18 10 8 12 4 12 -15 0z"/>
<path d="M7514 6762 c4 -3 14 -7 22 -8 9 -1 13 0 10 4 -4 3 -14 7 -22 8 -9 1
-13 0 -10 -4z"/>
<path d="M5493 6729 c-2 -23 3 -25 10 -4 4 8 3 16 -1 19 -4 3 -9 -4 -9 -15z"/>
<path d="M5530 6739 c0 -5 5 -7 10 -4 6 3 10 8 10 11 0 2 -4 4 -10 4 -5 0 -10
-5 -10 -11z"/>
<path d="M7773 6729 c-2 -23 3 -25 10 -4 4 8 3 16 -1 19 -4 3 -9 -4 -9 -15z"/>
<path d="M3047 6733 c-1 -1 -31 -4 -65 -6 -35 -3 -66 -7 -69 -11 -4 -3 -13 -6
-20 -6 -29 0 -150 -54 -214 -95 -37 -24 -86 -63 -110 -87 -49 -48 -118 -126
-118 -133 -1 -3 -14 -31 -30 -64 -63 -123 -76 -183 -76 -336 0 -102 5 -154 17
-192 9 -28 14 -54 11 -57 -4 -3 -1 -6 5 -6 7 0 12 -5 12 -11 0 -16 59 -130 78
-151 8 -10 13 -18 9 -18 -3 0 10 -15 28 -34 18 -19 37 -40 42 -48 17 -27 111
-95 195 -142 112 -61 274 -90 413 -73 44 5 89 10 100 11 11 0 22 3 25 6 5 5
98 40 115 43 6 1 12 4 15 7 14 16 156 105 163 102 5 -1 6 1 3 6 -7 12 58 74
69 65 4 -5 5 -3 1 4 -4 7 2 21 14 33 11 11 20 25 20 31 0 5 6 7 13 3 6 -4 9
-4 5 1 -6 6 45 110 61 125 4 3 7 12 8 20 1 8 11 49 23 90 25 90 28 253 6 345
-8 33 -12 63 -10 67 3 5 0 8 -7 8 -7 0 -10 3 -7 6 8 8 -54 131 -96 188 -19 27
-32 54 -29 59 3 6 1 7 -4 4 -6 -4 -32 17 -59 45 -27 29 -50 52 -51 50 -2 -1
-27 13 -55 32 -109 69 -216 105 -346 115 -46 4 -84 6 -85 4z"/>
<path d="M5365 6720 c-3 -6 1 -7 9 -4 18 7 21 14 7 14 -6 0 -13 -4 -16 -10z"/>
<path d="M7814 6716 c1 -8 5 -18 8 -22 4 -3 5 1 4 10 -1 8 -5 18 -8 22 -4 3
-5 -1 -4 -10z"/>
<path d="M5530 6699 c0 -5 5 -7 10 -4 6 3 10 8 10 11 0 2 -4 4 -10 4 -5 0 -10
-5 -10 -11z"/>
<path d="M7553 6687 c0 -8 6 -14 14 -14 9 0 10 4 2 14 -6 7 -12 13 -14 13 -1
0 -2 -6 -2 -13z"/>
<path d="M5635 6671 c-3 -5 -2 -12 3 -15 5 -3 9 1 9 9 0 17 -3 19 -12 6z"/>
<path d="M5673 6667 c0 -8 6 -14 14 -14 9 0 10 4 2 14 -6 7 -12 13 -14 13 -1
0 -2 -6 -2 -13z"/>
<path d="M5494 6640 c0 -16 3 -27 6 -25 8 5 6 42 -1 50 -3 2 -5 -8 -5 -25z"/>
<path d="M5535 6660 c3 -5 8 -10 11 -10 2 0 4 5 4 10 0 6 -5 10 -11 10 -5 0
-7 -4 -4 -10z"/>
<path d="M5575 6660 c3 -5 8 -10 11 -10 2 0 4 5 4 10 0 6 -5 10 -11 10 -5 0
-7 -4 -4 -10z"/>
<path d="M7515 6660 c-3 -5 -1 -10 4 -10 6 0 11 5 11 10 0 6 -2 10 -4 10 -3 0
-8 -4 -11 -10z"/>
<path d="M7693 6649 c-2 -23 3 -25 10 -4 4 8 3 16 -1 19 -4 3 -9 -4 -9 -15z"/>
<path d="M7726 6658 c3 -5 10 -6 15 -3 13 9 11 12 -6 12 -8 0 -12 -4 -9 -9z"/>
<path d="M7544 6638 l-19 -23 23 19 c21 18 27 26 19 26 -2 0 -12 -10 -23 -22z"/>
<path d="M8793 6625 c0 -8 4 -12 9 -9 5 3 6 10 3 15 -9 13 -12 11 -12 -6z"/>
<path d="M5530 6620 c0 -5 5 -10 11 -10 5 0 7 5 4 10 -3 6 -8 10 -11 10 -2 0
-4 -4 -4 -10z"/>
<path d="M7759 6613 c-12 -16 -12 -17 2 -6 9 7 20 9 24 5 5 -4 5 -1 1 6 -9 16
-11 15 -27 -5z"/>
<path d="M5594 6600 c0 -13 4 -16 10 -10 7 7 7 13 0 20 -6 6 -10 3 -10 -10z"/>
<path d="M3795 6601 c-3 -5 -2 -12 3 -15 5 -3 9 1 9 9 0 17 -3 19 -12 6z"/>
<path d="M5620 6606 c0 -2 8 -10 18 -17 15 -13 16 -12 3 4 -13 16 -21 21 -21
13z"/>
<path d="M7586 6600 c5 -8 9 -18 9 -22 0 -3 3 -9 7 -13 3 -4 5 0 4 9 -1 9 -8
22 -16 29 -10 10 -11 9 -4 -3z"/>
<path d="M7675 6571 c-3 -5 -2 -12 3 -15 5 -3 9 1 9 9 0 17 -3 19 -12 6z"/>
<path d="M7919 6578 c-5 -18 -6 -38 -1 -34 7 8 12 36 6 36 -2 0 -4 -1 -5 -2z"/>
<path d="M5306 6558 c3 -5 10 -6 15 -3 13 9 11 12 -6 12 -8 0 -12 -4 -9 -9z"/>
<path d="M5370 6559 c0 -5 5 -7 10 -4 6 3 10 8 10 11 0 2 -4 4 -10 4 -5 0 -10
-5 -10 -11z"/>
<path d="M5616 6558 c3 -5 10 -6 15 -3 13 9 11 12 -6 12 -8 0 -12 -4 -9 -9z"/>
<path d="M7990 6561 c0 -6 4 -13 10 -16 6 -3 7 1 4 9 -7 18 -14 21 -14 7z"/>
<path d="M5446 6538 c3 -5 10 -6 15 -3 13 9 11 12 -6 12 -8 0 -12 -4 -9 -9z"/>
<path d="M5619 6528 c15 -21 31 -23 31 -6 0 6 -3 8 -7 5 -3 -4 -13 -1 -22 6
-14 11 -14 10 -2 -5z"/>
<path d="M5520 6520 c-9 -6 -10 -10 -3 -10 6 0 15 5 18 10 8 12 4 12 -15 0z"/>
<path d="M5590 6520 c0 -5 5 -10 11 -10 5 0 7 5 4 10 -3 6 -8 10 -11 10 -2 0
-4 -4 -4 -10z"/>
<path d="M7736 6502 c-3 -5 1 -9 9 -9 8 0 12 4 9 9 -3 4 -7 8 -9 8 -2 0 -6 -4
-9 -8z"/>
<path d="M5589 6483 c-13 -16 -12 -17 4 -4 9 7 17 15 17 17 0 8 -8 3 -21 -13z"/>
<path d="M5510 6479 c0 -5 5 -7 10 -4 6 3 10 8 10 11 0 2 -4 4 -10 4 -5 0 -10
-5 -10 -11z"/>
<path d="M7813 6471 c0 -11 5 -18 9 -15 4 3 5 11 1 19 -7 21 -12 19 -10 -4z"/>
<path d="M8075 6480 c3 -5 8 -10 11 -10 2 0 4 5 4 10 0 6 -5 10 -11 10 -5 0
-7 -4 -4 -10z"/>
<path d="M7600 6460 c-12 -7 -10 -9 7 -7 12 0 19 5 17 9 -6 10 -6 10 -24 -2z"/>
<path d="M7670 6456 c0 -2 8 -10 18 -17 15 -13 16 -12 3 4 -13 16 -21 21 -21
13z"/>
<path d="M5371 6447 c2 -1 13 -9 24 -17 19 -14 19 -14 6 3 -7 9 -18 17 -24 17
-6 0 -8 -1 -6 -3z"/>
<path d="M5516 6442 c-3 -5 1 -9 9 -9 8 0 12 4 9 9 -3 4 -7 8 -9 8 -2 0 -6 -4
-9 -8z"/>
<path d="M8433 6435 c0 -8 4 -12 9 -9 5 3 6 10 3 15 -9 13 -12 11 -12 -6z"/>
<path d="M5450 6420 c0 -5 5 -10 11 -10 5 0 7 5 4 10 -3 6 -8 10 -11 10 -2 0
-4 -4 -4 -10z"/>
<path d="M7720 6420 c-12 -7 -10 -9 7 -7 12 0 19 5 17 9 -6 10 -6 10 -24 -2z"/>
<path d="M7774 6422 c4 -3 14 -7 22 -8 9 -1 13 0 10 4 -4 3 -14 7 -22 8 -9 1
-13 0 -10 -4z"/>
<path d="M8766 6398 c3 -5 10 -6 15 -3 13 9 11 12 -6 12 -8 0 -12 -4 -9 -9z"/>
<path d="M7655 6380 c3 -5 8 -10 11 -10 2 0 4 5 4 10 0 6 -5 10 -11 10 -5 0
-7 -4 -4 -10z"/>
<path d="M7734 6382 c4 -3 14 -7 22 -8 9 -1 13 0 10 4 -4 3 -14 7 -22 8 -9 1
-13 0 -10 -4z"/>
<path d="M7953 6365 c0 -8 4 -12 9 -9 5 3 6 10 3 15 -9 13 -12 11 -12 -6z"/>
<path d="M5516 6353 c-6 -14 -5 -15 5 -6 7 7 10 15 7 18 -3 3 -9 -2 -12 -12z"/>
<path d="M5555 6360 c3 -5 8 -10 11 -10 2 0 4 5 4 10 0 6 -5 10 -11 10 -5 0
-7 -4 -4 -10z"/>
<path d="M5590 6360 c0 -5 5 -10 11 -10 5 0 7 5 4 10 -3 6 -8 10 -11 10 -2 0
-4 -4 -4 -10z"/>
<path d="M5454 6336 c1 -8 5 -18 8 -22 4 -3 5 1 4 10 -1 8 -5 18 -8 22 -4 3
-5 -1 -4 -10z"/>
<path d="M7776 6341 c-3 -5 2 -15 12 -22 15 -12 16 -12 5 2 -7 9 -10 19 -6 22
3 4 4 7 0 7 -3 0 -8 -4 -11 -9z"/>
<path d="M5555 6280 c3 -5 8 -10 11 -10 2 0 4 5 4 10 0 6 -5 10 -11 10 -5 0
-7 -4 -4 -10z"/>
<path d="M7470 6279 c0 -5 5 -7 10 -4 6 3 10 8 10 11 0 2 -4 4 -10 4 -5 0 -10
-5 -10 -11z"/>
<path d="M5495 6260 c3 -5 8 -10 11 -10 2 0 4 5 4 10 0 6 -5 10 -11 10 -5 0
-7 -4 -4 -10z"/>
<path d="M7686 6258 c3 -5 10 -6 15 -3 13 9 11 12 -6 12 -8 0 -12 -4 -9 -9z"/>
<path d="M7554 6240 c0 -13 4 -16 10 -10 7 7 7 13 0 20 -6 6 -10 3 -10 -10z"/>
<path d="M7836 6247 c3 -10 9 -15 12 -12 3 3 0 11 -7 18 -10 9 -11 8 -5 -6z"/>
<path d="M7593 6235 c0 -8 4 -12 9 -9 5 3 6 10 3 15 -9 13 -12 11 -12 -6z"/>
<path d="M8116 6233 c-6 -14 -5 -15 5 -6 7 7 10 15 7 18 -3 3 -9 -2 -12 -12z"/>
<path d="M8800 6246 c0 -2 8 -10 18 -17 15 -13 16 -12 3 4 -13 16 -21 21 -21
13z"/>
<path d="M5454 6216 c1 -8 5 -18 8 -22 4 -3 5 1 4 10 -1 8 -5 18 -8 22 -4 3
-5 -1 -4 -10z"/>
<path d="M5535 6220 c-3 -5 -1 -10 4 -10 6 0 11 5 11 10 0 6 -2 10 -4 10 -3 0
-8 -4 -11 -10z"/>
<path d="M7436 6218 c3 -5 10 -6 15 -3 13 9 11 12 -6 12 -8 0 -12 -4 -9 -9z"/>
<path d="M7906 6218 c3 -5 10 -6 15 -3 13 9 11 12 -6 12 -8 0 -12 -4 -9 -9z"/>
<path d="M7473 6205 c0 -8 4 -12 9 -9 5 3 6 10 3 15 -9 13 -12 11 -12 -6z"/>
<path d="M5316 6202 c-3 -5 1 -9 9 -9 8 0 12 4 9 9 -3 4 -7 8 -9 8 -2 0 -6 -4
-9 -8z"/>
<path d="M5674 6198 c-4 -7 -4 -10 1 -6 4 4 15 2 24 -5 14 -11 14 -10 2 6 -16
20 -18 21 -27 5z"/>
<path d="M7635 6201 c-3 -5 -2 -12 3 -15 5 -3 9 1 9 9 0 17 -3 19 -12 6z"/>
<path d="M7855 5878 l0 -333 251 2 251 3 -10 -45 c-6 -24 -14 -42 -18 -40 -4
3 -5 -4 -2 -15 3 -11 1 -20 -5 -20 -5 0 -10 -6 -9 -12 1 -35 -4 -49 -15 -42
-6 4 -8 3 -5 -3 9 -14 -12 -73 -25 -73 -5 0 -6 -4 -3 -10 8 -13 -40 -101 -50
-92 -5 4 -5 1 -1 -6 12 -20 -124 -252 -147 -252 -6 0 -7 -3 -4 -7 10 -9 -14
-34 -26 -26 -6 3 -7 1 -3 -5 4 -7 2 -17 -3 -24 -6 -7 -22 -28 -37 -46 -14 -17
-31 -29 -36 -25 -6 3 -8 1 -4 -5 6 -10 -49 -71 -147 -160 -25 -23 -48 -42 -49
-41 -2 1 -23 -17 -48 -40 -25 -23 -50 -39 -57 -37 -7 3 -15 0 -19 -6 -4 -7 -3
-8 4 -4 7 4 12 5 12 3 0 -9 -228 -149 -250 -153 -3 0 -36 -15 -73 -32 -38 -18
-74 -29 -79 -25 -6 3 -8 2 -5 -4 8 -12 -129 -57 -145 -47 -6 4 -8 3 -5 -3 6
-9 -186 -58 -208 -52 -5 1 -17 -1 -25 -4 -27 -12 -225 -24 -242 -15 -10 5 -19
4 -23 -2 -3 -6 -18 -8 -33 -6 -15 3 -72 7 -127 11 -55 3 -101 10 -103 15 -2 5
-17 7 -33 3 -16 -3 -35 0 -42 6 -8 6 -16 8 -19 5 -7 -7 -106 19 -221 57 -48
16 -91 29 -96 29 -9 0 -29 -33 -118 -189 -17 -31 -36 -55 -42 -54 -6 2 -8 -3
-5 -10 5 -13 -80 -165 -100 -179 -6 -4 -8 -8 -4 -8 9 0 -61 -122 -75 -131 -5
-3 -8 -8 -7 -10 4 -12 -14 -38 -23 -32 -5 3 -7 1 -4 -4 4 -6 -52 -113 -124
-237 -78 -133 -129 -232 -125 -241 3 -8 14 -15 24 -15 10 0 22 -4 28 -9 16
-15 234 -97 344 -129 224 -66 224 -65 425 -97 291 -47 654 -48 942 -5 40 6 77
9 83 5 5 -3 10 -2 10 3 0 5 32 15 71 22 55 9 73 17 76 31 3 10 9 17 13 14 4
-2 5 6 3 20 -7 33 27 204 43 220 7 7 11 15 8 18 -9 8 18 77 28 71 4 -3 5 1 2
9 -3 8 2 22 11 31 9 9 14 16 11 16 -4 0 3 18 14 40 12 23 25 38 30 35 5 -3 8
0 5 7 -7 18 93 151 107 142 7 -4 8 -3 4 4 -14 23 192 200 216 186 7 -4 8 -3 4
4 -3 6 3 16 14 22 11 6 20 7 20 3 0 -4 4 -3 8 3 15 23 172 92 185 82 2 -2 10
2 18 8 12 10 115 36 174 45 11 1 81 2 155 2 152 0 259 -21 383 -73 84 -35 88
-36 107 -12 127 149 192 230 237 294 30 43 59 78 64 78 5 0 8 3 7 8 -3 15 15
42 25 35 6 -3 7 -1 3 6 -4 6 3 26 16 44 26 36 38 58 113 200 28 53 55 94 60
90 4 -5 5 -3 2 3 -3 6 14 60 39 120 25 60 50 120 56 134 5 14 9 25 8 25 -1 0
6 19 15 43 10 24 34 104 54 178 21 74 41 131 45 127 4 -4 4 0 1 10 -4 9 -2 38
4 64 20 86 26 126 36 213 3 36 9 72 12 80 6 17 6 520 0 526 -2 2 -407 4 -899
4 -576 0 -898 4 -900 10 -2 6 -3 -140 -3 -322z"/>
<path d="M5610 6180 c0 -5 5 -10 11 -10 5 0 7 5 4 10 -3 6 -8 10 -11 10 -2 0
-4 -4 -4 -10z"/>
<path d="M7715 6179 c-3 -4 2 -6 10 -5 21 3 28 13 10 13 -9 0 -18 -4 -20 -8z"/>
<path d="M7496 6167 c3 -10 9 -15 12 -12 3 3 0 11 -7 18 -10 9 -11 8 -5 -6z"/>
<path d="M7657 6155 c-4 -8 -3 -16 1 -19 4 -3 9 4 9 15 2 23 -3 25 -10 4z"/>
<path d="M5453 6145 c0 -8 4 -12 9 -9 5 3 6 10 3 15 -9 13 -12 11 -12 -6z"/>
<path d="M7833 6145 c0 -8 4 -12 9 -9 5 3 6 10 3 15 -9 13 -12 11 -12 -6z"/>
<path d="M5615 6140 c3 -5 8 -10 11 -10 2 0 4 5 4 10 0 6 -5 10 -11 10 -5 0
-7 -4 -4 -10z"/>
<path d="M7500 6126 c0 -2 8 -10 18 -17 15 -13 16 -12 3 4 -13 16 -21 21 -21
13z"/>
<path d="M7699 6128 c-5 -18 -6 -38 -1 -34 7 8 12 36 6 36 -2 0 -4 -1 -5 -2z"/>
<path d="M5575 6100 c-3 -5 -1 -10 4 -10 6 0 11 5 11 10 0 6 -2 10 -4 10 -3 0
-8 -4 -11 -10z"/>
<path d="M7397 6090 c7 -8 20 -15 29 -16 9 -1 13 1 9 4 -4 4 -10 7 -13 7 -4 0
-14 4 -22 9 -12 7 -13 6 -3 -4z"/>
<path d="M5615 6060 c-3 -5 -1 -10 4 -10 6 0 11 5 11 10 0 6 -2 10 -4 10 -3 0
-8 -4 -11 -10z"/>
<path d="M5655 6060 c3 -5 8 -10 11 -10 2 0 4 5 4 10 0 6 -5 10 -11 10 -5 0
-7 -4 -4 -10z"/>
<path d="M5350 6039 c0 -5 5 -7 10 -4 6 3 10 8 10 11 0 2 -4 4 -10 4 -5 0 -10
-5 -10 -11z"/>
<path d="M5516 6033 c-6 -14 -5 -15 5 -6 7 7 10 15 7 18 -3 3 -9 -2 -12 -12z"/>
<path d="M7659 6048 c-5 -18 -6 -38 -1 -34 7 8 12 36 6 36 -2 0 -4 -1 -5 -2z"/>
<path d="M5554 6022 c4 -3 14 -7 22 -8 9 -1 13 0 10 4 -4 3 -14 7 -22 8 -9 1
-13 0 -10 -4z"/>
<path d="M7570 5979 c0 -5 5 -7 10 -4 6 3 10 8 10 11 0 2 -4 4 -10 4 -5 0 -10
-5 -10 -11z"/>
<path d="M7619 5988 c-5 -18 -6 -38 -1 -34 7 8 12 36 6 36 -2 0 -4 -1 -5 -2z"/>
<path d="M7435 5960 c-3 -5 -1 -10 4 -10 6 0 11 5 11 10 0 6 -2 10 -4 10 -3 0
-8 -4 -11 -10z"/>
<path d="M5655 5940 c-3 -5 -1 -10 4 -10 6 0 11 5 11 10 0 6 -2 10 -4 10 -3 0
-8 -4 -11 -10z"/>
<path d="M5735 5940 c3 -5 8 -10 11 -10 2 0 4 5 4 10 0 6 -5 10 -11 10 -5 0
-7 -4 -4 -10z"/>
<path d="M7656 5938 c3 -5 10 -6 15 -3 13 9 11 12 -6 12 -8 0 -12 -4 -9 -9z"/>
<path d="M7515 5929 c-4 -6 -5 -12 -2 -15 2 -3 7 2 10 11 7 17 1 20 -8 4z"/>
<path d="M4980 5926 c0 -2 8 -10 18 -17 15 -13 16 -12 3 4 -13 16 -21 21 -21
13z"/>
<path d="M5475 5920 c3 -5 8 -10 11 -10 2 0 4 5 4 10 0 6 -5 10 -11 10 -5 0
-7 -4 -4 -10z"/>
<path d="M5535 5920 c3 -5 8 -10 11 -10 2 0 4 5 4 10 0 6 -5 10 -11 10 -5 0
-7 -4 -4 -10z"/>
<path d="M7695 5920 c3 -5 8 -10 11 -10 2 0 4 5 4 10 0 6 -5 10 -11 10 -5 0
-7 -4 -4 -10z"/>
<path d="M5590 5900 c0 -5 5 -10 11 -10 5 0 7 5 4 10 -3 6 -8 10 -11 10 -2 0
-4 -4 -4 -10z"/>
<path d="M5695 5900 c-3 -5 -1 -10 4 -10 6 0 11 5 11 10 0 6 -2 10 -4 10 -3 0
-8 -4 -11 -10z"/>
<path d="M5735 5900 c3 -5 8 -10 11 -10 2 0 4 5 4 10 0 6 -5 10 -11 10 -5 0
-7 -4 -4 -10z"/>
<path d="M7415 5900 c3 -5 8 -10 11 -10 2 0 4 5 4 10 0 6 -5 10 -11 10 -5 0
-7 -4 -4 -10z"/>
<path d="M7450 5899 c0 -5 5 -7 10 -4 6 3 10 8 10 11 0 2 -4 4 -10 4 -5 0 -10
-5 -10 -11z"/>
<path d="M7555 5899 c-3 -4 2 -6 10 -5 21 3 28 13 10 13 -9 0 -18 -4 -20 -8z"/>
<path d="M5540 5880 c-9 -6 -10 -10 -3 -10 6 0 15 5 18 10 8 12 4 12 -15 0z"/>
<path d="M7360 5880 c-9 -6 -10 -10 -3 -10 6 0 15 5 18 10 8 12 4 12 -15 0z"/>
<path d="M7786 5882 c-3 -5 1 -9 9 -9 8 0 12 4 9 9 -3 4 -7 8 -9 8 -2 0 -6 -4
-9 -8z"/>
<path d="M5635 5859 c-3 -4 2 -6 10 -5 21 3 28 13 10 13 -9 0 -18 -4 -20 -8z"/>
<path d="M7455 5860 c3 -5 8 -10 11 -10 2 0 4 5 4 10 0 6 -5 10 -11 10 -5 0
-7 -4 -4 -10z"/>
<path d="M5439 5833 c-13 -16 -12 -17 4 -4 9 7 17 15 17 17 0 8 -8 3 -21 -13z"/>
<path d="M5710 5840 c0 -5 5 -10 11 -10 5 0 7 5 4 10 -3 6 -8 10 -11 10 -2 0
-4 -4 -4 -10z"/>
<path d="M7070 5841 c0 -6 4 -13 10 -16 6 -3 7 1 4 9 -7 18 -14 21 -14 7z"/>
<path d="M7316 5833 c-6 -14 -5 -15 5 -6 7 7 10 15 7 18 -3 3 -9 -2 -12 -12z"/>
<path d="M7353 5835 c0 -8 4 -12 9 -9 4 3 8 9 8 15 0 5 -4 9 -8 9 -5 0 -9 -7
-9 -15z"/>
<path d="M7514 5833 c16 -20 36 -23 36 -6 0 4 -3 3 -7 0 -3 -4 -16 1 -27 10
-21 18 -21 18 -2 -4z"/>
<path d="M7206 5831 c-3 -4 6 -8 20 -9 13 -1 24 0 24 2 0 7 -40 14 -44 7z"/>
<path d="M7755 5811 c-3 -5 -2 -12 3 -15 5 -3 9 1 9 9 0 17 -3 19 -12 6z"/>
<path d="M5790 5801 c0 -6 4 -13 10 -16 6 -3 7 1 4 9 -7 18 -14 21 -14 7z"/>
<path d="M7073 5792 c-8 -14 -8 -19 1 -19 7 0 13 9 13 19 1 10 1 18 0 18 -1 0
-7 -8 -14 -18z"/>
<path d="M7235 5801 c-3 -5 -2 -12 3 -15 5 -3 9 1 9 9 0 17 -3 19 -12 6z"/>
<path d="M7346 5798 c3 -4 9 -8 15 -8 5 0 9 4 9 8 0 5 -7 9 -15 9 -8 0 -12 -4
-9 -9z"/>
<path d="M7396 5802 c-3 -5 1 -9 9 -9 8 0 12 4 9 9 -3 4 -7 8 -9 8 -2 0 -6 -4
-9 -8z"/>
<path d="M7434 5782 c4 -3 14 -7 22 -8 9 -1 13 0 10 4 -4 3 -14 7 -22 8 -9 1
-13 0 -10 -4z"/>
<path d="M7195 5769 c-4 -6 -5 -12 -2 -15 2 -3 7 2 10 11 7 17 1 20 -8 4z"/>
<path d="M5796 5762 c-3 -5 1 -9 9 -9 8 0 12 4 9 9 -3 4 -7 8 -9 8 -2 0 -6 -4
-9 -8z"/>
<path d="M5739 5748 c-5 -18 -6 -38 -1 -34 7 8 12 36 6 36 -2 0 -4 -1 -5 -2z"/>
<path d="M7330 5739 c0 -5 5 -7 10 -4 6 3 10 8 10 11 0 2 -4 4 -10 4 -5 0 -10
-5 -10 -11z"/>
<path d="M7496 5742 c-3 -5 1 -9 9 -9 8 0 12 4 9 9 -3 4 -7 8 -9 8 -2 0 -6 -4
-9 -8z"/>
<path d="M6537 5729 c7 -7 15 -10 18 -7 3 3 -2 9 -12 12 -14 6 -15 5 -6 -5z"/>
<path d="M7455 5720 c-3 -5 -1 -10 4 -10 6 0 11 5 11 10 0 6 -2 10 -4 10 -3 0
-8 -4 -11 -10z"/>
<path d="M7535 5720 c3 -5 8 -10 11 -10 2 0 4 5 4 10 0 6 -5 10 -11 10 -5 0
-7 -4 -4 -10z"/>
<path d="M6546 5702 c-3 -5 1 -9 9 -9 8 0 15 4 15 9 0 4 -4 8 -9 8 -6 0 -12
-4 -15 -8z"/>
<path d="M7215 5700 c3 -5 8 -10 11 -10 2 0 4 5 4 10 0 6 -5 10 -11 10 -5 0
-7 -4 -4 -10z"/>
<path d="M7255 5700 c3 -5 8 -10 11 -10 2 0 4 5 4 10 0 6 -5 10 -11 10 -5 0
-7 -4 -4 -10z"/>
<path d="M7320 5700 c-12 -7 -10 -9 7 -7 12 0 19 5 17 9 -6 10 -6 10 -24 -2z"/>
<path d="M7375 5699 c-3 -4 2 -6 10 -5 21 3 28 13 10 13 -9 0 -18 -4 -20 -8z"/>
<path d="M5730 5680 c0 -5 5 -10 11 -10 5 0 7 5 4 10 -3 6 -8 10 -11 10 -2 0
-4 -4 -4 -10z"/>
<path d="M7096 5678 c3 -5 10 -6 15 -3 13 9 11 12 -6 12 -8 0 -12 -4 -9 -9z"/>
<path d="M5975 5660 c3 -5 8 -10 11 -10 2 0 4 5 4 10 0 6 -5 10 -11 10 -5 0
-7 -4 -4 -10z"/>
<path d="M6520 5660 c-8 -5 -12 -12 -9 -15 4 -3 12 1 19 10 14 17 11 19 -10 5z"/>
<path d="M7375 5659 c-3 -4 2 -6 10 -5 21 3 28 13 10 13 -9 0 -18 -4 -20 -8z"/>
<path d="M6539 5633 c-13 -16 -12 -17 4 -4 16 13 21 21 13 21 -2 0 -10 -8 -17
-17z"/>
<path d="M7233 5635 c0 -8 4 -12 9 -9 5 3 6 10 3 15 -9 13 -12 11 -12 -6z"/>
<path d="M7455 5640 c3 -5 8 -10 11 -10 2 0 4 5 4 10 0 6 -5 10 -11 10 -5 0
-7 -4 -4 -10z"/>
<path d="M5854 5616 c1 -8 5 -18 8 -22 4 -3 5 1 4 10 -1 8 -5 18 -8 22 -4 3
-5 -1 -4 -10z"/>
<path d="M7315 5619 c-3 -4 2 -6 10 -5 21 3 28 13 10 13 -9 0 -18 -4 -20 -8z"/>
<path d="M7413 5609 c-2 -23 3 -25 10 -4 4 8 3 16 -1 19 -4 3 -9 -4 -9 -15z"/>
<path d="M5810 5600 c0 -5 5 -10 11 -10 5 0 7 5 4 10 -3 6 -8 10 -11 10 -2 0
-4 -4 -4 -10z"/>
<path d="M6553 5591 c0 -11 5 -18 9 -15 4 3 5 11 1 19 -7 21 -12 19 -10 -4z"/>
<path d="M6600 5600 c0 -5 5 -10 11 -10 5 0 7 5 4 10 -3 6 -8 10 -11 10 -2 0
-4 -4 -4 -10z"/>
<path d="M7213 5591 c0 -11 5 -18 9 -15 4 3 5 11 1 19 -7 21 -12 19 -10 -4z"/>
<path d="M7456 5602 c-3 -5 1 -9 9 -9 8 0 12 4 9 9 -3 4 -7 8 -9 8 -2 0 -6 -4
-9 -8z"/>
<path d="M5895 5579 c-3 -4 2 -6 10 -5 21 3 28 13 10 13 -9 0 -18 -4 -20 -8z"/>
<path d="M7126 5582 c-3 -5 1 -9 9 -9 8 0 12 4 9 9 -3 4 -7 8 -9 8 -2 0 -6 -4
-9 -8z"/>
<path d="M5855 5560 c-3 -5 -1 -10 4 -10 6 0 11 5 11 10 0 6 -2 10 -4 10 -3 0
-8 -4 -11 -10z"/>
<path d="M5955 5539 c-3 -4 2 -6 10 -5 21 3 28 13 10 13 -9 0 -18 -4 -20 -8z"/>
<path d="M7219 5548 c-5 -18 -6 -38 -1 -34 7 8 12 36 6 36 -2 0 -4 -1 -5 -2z"/>
<path d="M7256 5502 c-3 -5 1 -9 9 -9 8 0 12 4 9 9 -3 4 -7 8 -9 8 -2 0 -6 -4
-9 -8z"/>
<path d="M8309 5483 c-13 -16 -12 -17 4 -4 9 7 17 15 17 17 0 8 -8 3 -21 -13z"/>
<path d="M5795 5480 c3 -5 8 -10 11 -10 2 0 4 5 4 10 0 6 -5 10 -11 10 -5 0
-7 -4 -4 -10z"/>
<path d="M6015 5460 c3 -5 8 -10 11 -10 2 0 4 5 4 10 0 6 -5 10 -11 10 -5 0
-7 -4 -4 -10z"/>
<path d="M7110 5451 c0 -6 4 -13 10 -16 6 -3 7 1 4 9 -7 18 -14 21 -14 7z"/>
<path d="M8135 5449 c-4 -6 -5 -12 -2 -15 2 -3 7 2 10 11 7 17 1 20 -8 4z"/>
<path d="M7956 5433 c-6 -14 -5 -15 5 -6 7 7 10 15 7 18 -3 3 -9 -2 -12 -12z"/>
<path d="M4950 5421 c0 -6 4 -13 10 -16 6 -3 7 1 4 9 -7 18 -14 21 -14 7z"/>
<path d="M7190 5420 c0 -5 5 -10 11 -10 5 0 7 5 4 10 -3 6 -8 10 -11 10 -2 0
-4 -4 -4 -10z"/>
<path d="M5275 5409 c-4 -6 -5 -12 -2 -15 2 -3 7 2 10 11 7 17 1 20 -8 4z"/>
<path d="M7310 5400 c0 -5 5 -10 11 -10 5 0 7 5 4 10 -3 6 -8 10 -11 10 -2 0
-4 -4 -4 -10z"/>
<path d="M6575 5380 c-3 -5 -1 -10 4 -10 6 0 11 5 11 10 0 6 -2 10 -4 10 -3 0
-8 -4 -11 -10z"/>
<path d="M7130 5379 c0 -5 5 -7 10 -4 6 3 10 8 10 11 0 2 -4 4 -10 4 -5 0 -10
-5 -10 -11z"/>
<path d="M6573 5335 c0 -8 4 -12 9 -9 5 3 6 10 3 15 -9 13 -12 11 -12 -6z"/>
<path d="M5316 5318 c3 -5 10 -6 15 -3 13 9 11 12 -6 12 -8 0 -12 -4 -9 -9z"/>
<path d="M7166 5318 c3 -5 10 -6 15 -3 13 9 11 12 -6 12 -8 0 -12 -4 -9 -9z"/>
<path d="M5956 5307 c3 -10 9 -15 12 -12 3 3 0 11 -7 18 -10 9 -11 8 -5 -6z"/>
<path d="M5230 5282 c0 -5 7 -9 15 -9 8 0 12 4 9 9 -3 4 -9 8 -15 8 -5 0 -9
-4 -9 -8z"/>
<path d="M5875 5280 c3 -5 8 -10 11 -10 2 0 4 5 4 10 0 6 -5 10 -11 10 -5 0
-7 -4 -4 -10z"/>
<path d="M6547 5279 c7 -7 15 -10 18 -7 3 3 -2 9 -12 12 -14 6 -15 5 -6 -5z"/>
<path d="M5106 5258 c3 -5 10 -6 15 -3 13 9 11 12 -6 12 -8 0 -12 -4 -9 -9z"/>
<path d="M7997 5253 c-10 -9 -9 -23 1 -23 5 0 9 7 9 15 0 17 -1 18 -10 8z"/>
<path d="M6500 5246 c0 -2 8 -10 18 -17 15 -13 16 -12 3 4 -13 16 -21 21 -21
13z"/>
<path d="M5216 5113 c-6 -14 -5 -15 5 -6 7 7 10 15 7 18 -3 3 -9 -2 -12 -12z"/>
<path d="M6000 5120 c-9 -6 -10 -10 -3 -10 6 0 15 5 18 10 8 12 4 12 -15 0z"/>
<path d="M7195 5120 c3 -5 8 -10 11 -10 2 0 4 5 4 10 0 6 -5 10 -11 10 -5 0
-7 -4 -4 -10z"/>
<path d="M7635 5120 c-3 -5 -1 -10 4 -10 6 0 11 5 11 10 0 6 -2 10 -4 10 -3 0
-8 -4 -11 -10z"/>
<path d="M7394 5040 c0 -13 4 -16 10 -10 7 7 7 13 0 20 -6 6 -10 3 -10 -10z"/>
<path d="M5680 5000 c-9 -6 -10 -10 -3 -10 6 0 15 5 18 10 8 12 4 12 -15 0z"/>
<path d="M5335 4969 c-4 -6 -5 -12 -2 -15 2 -3 7 2 10 11 7 17 1 20 -8 4z"/>
<path d="M7535 4961 c-3 -5 -2 -12 3 -15 5 -3 9 1 9 9 0 17 -3 19 -12 6z"/>
<path d="M5909 4923 c-13 -16 -12 -17 4 -4 9 7 17 15 17 17 0 8 -8 3 -21 -13z"/>
<path d="M6537 4929 c7 -7 15 -10 18 -7 3 3 -2 9 -12 12 -14 6 -15 5 -6 -5z"/>
<path d="M7270 4936 c0 -2 8 -10 18 -17 15 -13 16 -12 3 4 -13 16 -21 21 -21
13z"/>
<path d="M7475 4931 c-3 -5 -2 -12 3 -15 5 -3 9 1 9 9 0 17 -3 19 -12 6z"/>
<path d="M5790 4919 c0 -5 5 -7 10 -4 6 3 10 8 10 11 0 2 -4 4 -10 4 -5 0 -10
-5 -10 -11z"/>
<path d="M5956 4758 c3 -5 10 -6 15 -3 13 9 11 12 -6 12 -8 0 -12 -4 -9 -9z"/>
<path d="M8120 3920 c-9 -6 -10 -10 -3 -10 6 0 15 5 18 10 8 12 4 12 -15 0z"/>
<path d="M8213 3683 c5 -7 -11 -15 -46 -23 -48 -11 -166 -57 -177 -70 -3 -3
-30 -22 -62 -43 -147 -99 -266 -285 -298 -464 -18 -97 -8 -280 18 -354 28 -80
77 -175 113 -220 17 -22 27 -44 23 -50 -4 -7 -3 -9 3 -6 13 8 76 -57 66 -68
-5 -4 -2 -5 5 -1 7 4 29 -7 55 -27 51 -42 161 -98 242 -123 46 -14 92 -19 200
-19 120 0 150 3 209 23 65 22 141 58 211 99 35 21 175 160 175 174 0 6 5 7 10
4 6 -4 10 -3 9 2 -4 14 24 63 32 57 5 -3 6 2 3 10 -4 9 1 18 10 22 9 3 14 10
11 14 -3 4 6 32 19 61 65 150 62 387 -8 553 -9 21 -13 43 -9 49 3 5 2 7 -4 4
-5 -4 -21 14 -35 39 -40 73 -137 176 -217 229 -40 28 -81 53 -90 57 -9 3 -29
12 -46 19 -41 17 -42 17 -115 34 -65 16 -264 24 -277 12 -3 -4 -13 -1 -21 6
-10 8 -13 8 -9 0z"/>
</g>
</svg>
